<svg xmlns="http://www.w3.org/2000/svg" viewBox="0 0 512.016 512.016"><path d="M402.715 244.765c-27.938-64.92-54.314-126.249-7.125-226.496 3.004-6.4.265-14.029-6.135-17.041s-14.029-.247-17.041 6.135c-52.078 110.675-22.161 180.238 6.775 247.522l3.678 8.593c-21.913 16.879-68.829 30.933-126.863 30.933-58.077 0-104.95-14.071-126.846-30.967l3.661-8.559c28.936-67.284 58.845-136.847 6.775-247.522-3.021-6.391-10.641-9.165-17.041-6.135-6.4 3.012-9.139 10.641-6.135 17.041 47.189 100.248 20.813 161.576-7.108 226.496-30.276 70.407-61.584 143.213 7.663 260.936 2.389 4.062 6.664 6.315 11.05 6.315 2.202 0 4.437-.563 6.477-1.766a12.81 12.81 0 0 0 4.548-17.527c-39.287-66.798-43.161-116.777-33.433-161.405 73.94 20.693 127.179 92.773 137.598 107.834v60.057c0 7.074 5.726 12.8 12.8 12.8s12.8-5.726 12.8-12.8v-60.082c10.794-15.582 63.845-87.277 137.581-107.877 9.736 44.654 5.888 94.642-33.416 161.474-3.575 6.084-1.553 13.935 4.548 17.527 2.039 1.203 4.275 1.766 6.477 1.766 4.386 0 8.661-2.253 11.05-6.315 69.246-117.724 37.938-190.521 7.662-260.937zM256.004 413.194c-21.29-28.066-72.984-86.919-143.597-106.571 2.074-6.34 4.378-12.604 6.792-18.841 29.474 19.72 78.625 32.23 136.813 32.23 58.12 0 107.339-12.441 136.855-32.11 2.398 6.195 4.685 12.424 6.741 18.722-70.62 19.65-122.314 78.504-143.604 106.57z"/><circle cx="255.995" cy="230.404" r="12.8"/><path d="M111.452 144.569L73.053 106.17c-5-5-13.098-5-18.099 0s-5 13.098 0 18.099L71.5 140.815H12.808c-7.074 0-12.8 5.726-12.8 12.8s5.726 12.8 12.8 12.8h58.7l-16.554 16.554c-5 5-5 13.098 0 18.099a12.76 12.76 0 0 0 18.108 0l38.399-38.399c4.991-5.002 4.991-13.1-.009-18.1zm387.748-3.755h-58.7l16.546-16.546c5-5 5-13.098 0-18.099s-13.098-5-18.099 0l-38.399 38.399c-5 5-5 13.098 0 18.099l38.399 38.399a12.76 12.76 0 0 0 18.108 0c5-5 5-13.098 0-18.099l-16.546-16.546h58.7c7.074 0 12.8-5.726 12.8-12.8a12.81 12.81 0 0 0-12.809-12.807z"/></svg>
