<svg xmlns="http://www.w3.org/2000/svg" width="16" height="16" fill-rule="evenodd"><path d="M9.253 2.782l-1.11-.273a4.021 4.021 0 0 0-.593 1.025l.79.825a3.005 3.005 0 0 0 0 1.282l-.79.825a4.02 4.02 0 0 0 .593 1.025l1.11-.273a2.98 2.98 0 0 0 1.109.641l.318 1.097a3.999 3.999 0 0 0 1.185 0l.318-1.097a2.985 2.985 0 0 0 1.11-.641l1.11.273a4.02 4.02 0 0 0 .593-1.025l-.792-.825a3.005 3.005 0 0 0 0-1.282l.792-.825a4.021 4.021 0 0 0-.593-1.025l-1.11.273a2.985 2.985 0 0 0-1.11-.641l-.318-1.097a3.985 3.985 0 0 0-1.185 0l-.318 1.097a2.982 2.982 0 0 0-1.11.641zM12.273 5a1 1 0 1 1-2 0 1 1 0 0 1 2 0zM6.915 6.264A4.54 4.54 0 0 0 5.7 6.04l-.445.918a3.588 3.588 0 0 0-1.364.37l-.85-.564c-.345.226-.66.499-.932.81l.44.92c-.27.391-.462.833-.56 1.298l-.971.312a4.51 4.51 0 0 0 .051 1.233l.995.23c.136.456.363.88.665 1.248l-.362.954c.298.287.632.532.996.728l.8-.633a3.58 3.58 0 0 0 1.39.257l.521.877c.409-.053.81-.162 1.19-.324l.004-1.02a3.58 3.58 0 0 0 1.067-.927l1.01.14a4.47 4.47 0 0 0 .49-1.133l-.796-.639a3.61 3.61 0 0 0-.058-1.413l.739-.701a4.508 4.508 0 0 0-.581-1.09l-.995.224a3.588 3.588 0 0 0-1.141-.834l-.088-1.017zm-1.15 2.82a1.477 1.477 0 1 1-.538 2.904 1.477 1.477 0 0 1 .539-2.905z"/></svg>
