<svg xmlns="http://www.w3.org/2000/svg" fill="#000000" width="800" height="800" viewBox="0 0 56 56"><!--! Icon (c) 2016 Vladimir Kharlampidi - MIT License --><path d="M48.613 51.145c.703.703 1.875.703 2.554 0a1.81 1.81 0 0 0 0-2.555L7.41 4.856c-.703-.703-1.852-.703-2.578 0-.703.68-.68 1.851 0 2.555zM16.152 9.66l30.234 30.234c1.359-2.062 1.945-4.359 1.945-7.359V14.863c0-2.414-1.055-3.187-3-4.008-2.742-1.125-11.531-4.266-14.25-5.25-.609-.187-1.266-.328-1.922-.328s-1.312.141-1.945.328L16.152 9.66zm23.414 36.422L9.988 16.504v16.031c0 8.414 4.523 11.484 17.438 18.773.68.352 1.313.492 1.734.492s1.031-.141 1.734-.492c3.492-1.992 6.352-3.68 8.672-5.227z"/></svg>
