<?xml version="1.0" encoding="UTF-8"?>
<svg enable-background="new 0 0 512 512" version="1.1" viewBox="0 0 512 512" xml:space="preserve" xmlns="http://www.w3.org/2000/svg">
	<path d="m254.16 106.67c29.461 0 53.333-23.872 53.333-53.333 0-29.462-23.872-53.334-53.333-53.334s-53.333 23.872-53.333 53.333c0 29.462 23.872 53.334 53.333 53.334z"/>
	<path d="m405.33 128c29.461 0 53.333-23.872 53.333-53.333 0-29.44-23.872-53.333-53.333-53.333s-53.333 23.872-53.333 53.333 23.872 53.333 53.333 53.333z"/>
	<path d="m106.66 128c29.461 0 53.333-23.872 53.333-53.333 0-29.44-23.872-53.333-53.333-53.333s-53.333 23.893-53.333 53.333c0 29.461 23.872 53.333 53.333 53.333z"/>
	<path d="m498.24 305.39-13.675-109.33c-3.328-26.624-26.069-46.72-52.907-46.72h-52.672c-5.035 0-10.155 0.832-15.637 2.56-5.461 1.707-8.619 7.424-7.104 12.949 1.088 4.075 2.091 8.213 2.624 12.821l13.952 99.797c1.685 14.677-2.048 29.205-10.475 40.875-1.728 2.411-2.389 5.419-1.813 8.32l12.203 61.824c1.856 9.408-0.576 19.072-6.677 26.496-2.987 3.627-6.677 6.507-10.944 8.555-3.648 1.749-5.995 5.397-6.08 9.429l-0.043 5.12 3.051 42.667c0.405 5.589 5.035 9.92 10.645 9.92h85.333c5.589 0 10.24-4.331 10.645-9.899l9.963-139.5c8.405-0.555 16.277-4.395 21.888-10.752 6.037-6.89 8.875-16.021 7.723-25.13z"/>
	<path d="m351.8 392.62-15.467-78.315c10.645-6.933 16.96-19.861 15.381-33.621l-14.101-100.86c-3.371-29.547-26.752-51.819-54.379-51.819h-54.485c-27.627 0-51.029 22.272-54.357 51.52l-14.165 101.4c-1.557 13.525 4.757 26.432 15.403 33.344l-15.467 78.315c-0.619 3.115 0.192 6.379 2.219 8.832 2.027 2.475 5.056 3.925 8.235 3.925h36.267l17.237 97.856c0.896 5.099 5.333 8.811 10.496 8.811h42.667c5.184 0 9.6-3.712 10.496-8.811l17.28-97.856h36.267c3.179 0 6.229-1.429 8.235-3.904 2.024-2.432 2.856-5.696 2.238-8.81z"/>
	<path d="m156.86 423.51c-4.267-2.048-7.936-4.907-10.901-8.512-6.101-7.445-8.533-17.088-6.677-26.517l12.181-61.696c0.576-2.923-0.085-5.952-1.856-8.363-8.427-11.541-12.181-25.707-10.581-39.616l14.293-102.46c0.085-0.853 0.32-1.643 0.512-2.453l0.661-2.987c0.128-0.747 0.192-1.515 0.171-2.283l-0.235-7.403c-0.149-4.715-3.392-8.789-7.957-9.984-4.928-1.28-9.195-1.877-13.461-1.877h-52.673c-26.837 0-49.6 20.075-52.907 46.72l-13.674 109.31c-1.131 9.109 1.685 18.261 7.765 25.152 5.611 6.357 13.483 10.197 21.888 10.752l9.963 139.5c0.405 5.589 5.035 9.899 10.645 9.899h85.333c5.589 0 10.24-4.331 10.645-9.899l3.072-43.776-0.128-4.203c-0.17-3.99-2.495-7.595-6.079-9.302z"/>
</svg>
