<svg xmlns="http://www.w3.org/2000/svg" fill="#cccccc" width="48" height="48"><path d="M24 6.104a3.253 3.253 0 1 1-3.253 3.253A3.253 3.253 0 0 1 24 6.104zm14.297 7.394l-9.782.738h-9.032l-9.779-.738a1.171 1.171 0 0 0-.273 2.323l9.932 1.578a.769.769 0 0 1 .642.665l.742 5.932-5.099 16.374a1.106 1.106 0 0 0 .509 1.314l.115.065a1.15 1.15 0 0 0 1.617-.55L24 27.109 30.111 41.2a1.15 1.15 0 0 0 1.617.55l.114-.065a1.106 1.106 0 0 0 .511-1.314l-5.099-16.374.742-5.932a.769.769 0 0 1 .642-.665l9.932-1.578a1.171 1.171 0 0 0-.273-2.323z"/><circle cx="24" cy="24" r="22" fill="none" stroke="#ccc" stroke-width="2" stroke-linejoin="round"/></svg>
