<svg xmlns="http://www.w3.org/2000/svg" viewBox="0 0 24 24" fill="none"><path fill="#fff" d="M0 0h24v24H0z"/><path fill-rule="evenodd" d="M12.293 14.293a1 1 0 0 0 1.414 1.414l2.913-2.913.044-.046c.206-.183.336-.45.336-.748s-.13-.565-.336-.748l-.044-.046-2.913-2.913a1 1 0 0 0-1.414 1.414L13.586 11H8a1 1 0 1 0 0 2h5.586l-1.293 1.293zM7.25 2.388C8.549 2.099 10.124 2 12 2s3.451.099 4.75.388c1.31.291 2.399.788 3.236 1.626s1.335 1.926 1.626 3.236C21.901 8.549 22 10.124 22 12s-.099 3.451-.388 4.75c-.291 1.31-.788 2.399-1.626 3.236s-1.926 1.335-3.236 1.626c-1.299.289-2.874.388-4.75.388s-3.451-.099-4.75-.388c-1.31-.291-2.399-.788-3.236-1.626S2.679 18.06 2.388 16.75C2.099 15.451 2 13.876 2 12s.099-3.451.388-4.75c.291-1.31.788-2.399 1.626-3.236S5.94 2.679 7.25 2.388z" fill="#000"/></svg>
