<svg xmlns="http://www.w3.org/2000/svg" width="478.666" height="478.666"><path d="M71.553 0v478.085l335.561.581V0zm31.556 446.583V31.558h272.445v56.813h-10.781V42.086h-250.88v394.468h250.881V390.27h10.781v56.785zm261.664-309.124h10.781V341.18h-10.781z" fill="#eee"/><path d="M239.333 353.724c32.213-.022 61.277-19.346 73.761-49.043s5.957-63.982-16.565-87.014v-35.53c0-31.588-25.607-57.195-57.195-57.195s-57.195 25.607-57.195 57.195v35.53c-22.522 23.032-29.049 57.318-16.565 87.014a80.08 80.08 0 0 0 73.761 49.043zm11.439-71.803v26.047a11.44 11.44 0 0 1-11.439 11.439 11.44 11.44 0 0 1-11.439-11.439v-26.047a22.88 22.88 0 1 1 22.878 0zm-45.756-99.783c0-18.953 15.364-34.317 34.317-34.317s34.317 15.364 34.317 34.317v19.252c-21.692-10.417-46.942-10.417-68.634 0z" fill="#444"/></svg>
