<svg xmlns="http://www.w3.org/2000/svg" fill="#ccc" viewBox="0 0 1200 1200" ><path d="M600 0C268.629 0 0 268.629 0 600s268.629 600 600 600 600-268.629 600-600S931.371 0 600 0zm-57.129 234.375h114.258l11.06 110.303c22.729 6.054 44.277 14.988 64.16 26.514l85.84-70.166 80.786 80.786-70.166 85.84c11.525 19.883 20.46 41.432 26.514 64.16l110.303 11.06V657.13l-110.303 11.133c-6.054 22.709-14.997 44.22-26.514 64.087l70.166 85.84-80.786 80.786-85.913-70.166c-19.874 11.516-41.371 20.464-64.087 26.514l-11.06 110.303H542.871l-11.133-110.303a262.31 262.31 0 0 1-64.014-26.514l-85.913 70.166-80.786-80.786 70.166-85.913c-11.507-19.858-20.463-41.317-26.514-64.014L234.374 657.13V542.871l110.303-11.06c6.05-22.716 14.998-44.213 26.514-64.087l-70.166-85.913 80.786-80.786 85.84 70.166c19.867-11.517 41.378-20.46 64.087-26.514l11.133-110.302zM600 494.312c-58.374 0-105.688 47.314-105.688 105.688S541.626 705.688 600 705.688 705.688 658.374 705.688 600 658.374 494.312 600 494.312z"/></svg>
