<svg xmlns="http://www.w3.org/2000/svg" fill="#ccc" viewBox="0 0 512 512"><path d="M423.633 185.47l.07-.78-.442-.203.23-5.126c0-92.494-74.98-167.5-167.491-167.5-92.494 0-167.508 75.006-167.508 167.5 0 1.762.177 3.4.23 5.126l-.425.203.089.78C35.914 213.777 0 268.853 0 332.63c0 92.503 75.016 167.509 167.509 167.509 32.283 0 62.228-9.59 87.818-25.422l.673.488.673-.488c25.59 15.832 55.535 25.422 87.819 25.422C437.021 500.139 512 425.133 512 332.63c0-63.777-35.913-118.853-88.367-147.16zM353.966 81.412c23.589 23.606 38.198 55.739 39.916 91.342a174.36 174.36 0 0 0-17.443-4.418l-66.886-116.79c16.716 7.022 31.751 17.213 44.413 29.866zm38.287 121.306c-6.659 39.048-29.415 72.526-61.432 93.131-7.615-33.753-25.359-63.584-49.886-86.198 19.072-9.89 40.571-15.549 63.558-15.549 16.823.001 32.848 3.135 47.76 8.616zM256 40.806c10.466 0 20.631 1.204 30.424 3.391l69.489 121.376c-3.772-.266-7.579-.424-11.422-.424-7.526 0-14.929.567-22.19 1.567l-72.004-125.76c1.878-.079 3.791-.15 5.703-.15zm-23.57 2.036l72.837 127.212c-8.943 2.222-17.62 5.162-25.962 8.748L205.706 50.254a138.31 138.31 0 0 1 26.724-7.412zm-41.705 14.301l73.793 128.885c-2.638 1.46-5.278 2.93-7.846 4.507l-.672-.479-.673.479c-9.74-6.012-20.118-11.113-31.008-15.141l-58.103-101.49c7.527-6.411 15.725-12.051 24.509-16.761zm-36.728 28.502l47.62 83.161c-10.945-2.356-22.278-3.64-33.913-3.648l-31.521-55.056c5.029-8.821 10.978-17.02 17.814-24.457zm-26.439 42.475l21.818 38.065c-10.767 1.213-21.198 3.463-31.256 6.57.742-15.699 4.018-30.717 9.438-44.635zm-7.792 74.598c14.858-5.481 30.902-8.616 47.744-8.616 22.986 0 44.502 5.659 63.557 15.549-24.527 22.614-42.288 52.462-49.868 86.198-32.072-20.604-54.828-54.082-61.433-93.131zM256 438.929c-28.954-24.172-47.778-59.652-49.673-99.772 15.726 4.922 32.336 7.72 49.673 7.72 17.284 0 33.93-2.798 49.656-7.72-1.895 40.154-20.702 75.625-49.656 99.772zm186.475-8.341c-25.129 25.102-59.679 40.597-97.983 40.597-22.951 0-44.467-5.658-63.504-15.512C314.138 425.115 335 381.286 335 332.63c0-1.726-.177-3.426-.23-5.144l.442-.221-.035-.718c42.059-22.64 73.403-62.503 84.188-110.476 38.304 24.678 63.681 67.621 63.681 116.559 0 38.305-15.496 72.855-40.571 97.958z"/></svg>
