<svg xmlns="http://www.w3.org/2000/svg" fill="#ccc" viewBox="0 0 857 1230" shape-rendering="geometricPrecision" image-rendering="optimizeQuality" fill-rule="evenodd"><path d="M676.5 26.5l129 73.5-284 502c5.776 12.385 11.942 24.551 18.5 36.5L662.5 864l169 310.5c-55 1.33-110 1.33-165 0-2.335-2.67-4.169-5.67-5.5-9-.903-1.2-2.069-2.03-3.5-2.5L438 1082.5l-7.5 1.5-222 85c-6.075-1.13-10.409 1.21-13 7l-102 1.5a1152.19 1152.19 0 0 0-69-2.5l328-578L81 97.5c-.797-1.759-.631-3.425.5-5l125-62.5c1.444-.78 2.777-.614 4 .5l84.5 157 52.5 96.5 90 163.5 239-421zm-423 1047l147.5-260c1.138 3.989 1.638 8.156 1.5 12.5v72l4 135a315.68 315.68 0 0 0-33 2l-99 33c-6.98 1.99-13.98 3.83-21 5.5zm360 4l-126-42.5c-5.053-.22-10.053-.72-15-1.5-.586.21-1.086.54-1.5 1l2-216 140.5 259z"/></svg>
