<svg xmlns="http://www.w3.org/2000/svg" width="600" height="600" shape-rendering="geometricPrecision" image-rendering="optimizeQuality" fill-rule="evenodd"><path d="M235.5 143.5c6.489-.57 12.489.763 18 4a26.09 26.09 0 0 1 3.5 5 579.33 579.33 0 0 1 1.5 57c19.713-.438 39.38.062 59 1.5 3.5 1.5 6 4 7.5 7.5a177.08 177.08 0 0 1 0 46c-1.5 3.5-4 6-7.5 7.5-19.62 1.438-39.287 1.938-59 1.5v53c19.713-.438 39.38.062 59 1.5 3.5 1.5 6 4 7.5 7.5a177.08 177.08 0 0 1 0 46c-1.5 3.5-4 6-7.5 7.5-19.62 1.438-39.287 1.938-59 1.5.167 16.337 0 32.67-.5 49-1.826 9.809-7.826 14.475-18 14-55.353-1.832-98.353-25.498-129-71-9.658-15.465-16.491-32.131-20.5-50a842.03 842.03 0 0 0-41-1.5c-5.8-.472-9.967-3.306-12.5-8.5-1.57-13.286-1.903-26.619-1-40 .833-8.167 5.333-12.667 13.5-13.5a840.27 840.27 0 0 1 41-.5c10.948-53.785 41.615-91.618 92-113.5 17.294-6.245 34.961-10.078 53-11.5z"/><path fill="#000000" d="M357.5 143.5c67.09 4.6 113.924 37.6 140.5 99a123.71 123.71 0 0 1 6.5 26 416.75 416.75 0 0 1 48 1.5c5.194 2.533 8.028 6.7 8.5 12.5.667 11.667.667 23.333 0 35-.833 8.167-5.333 12.667-13.5 13.5-14.345.167-28.678.667-43 1.5-17.166 65.332-58.833 104.832-125 118.5l-21 2.5c-8.622-.789-13.455-5.456-14.5-14v-282c1.012-8.177 5.512-12.844 13.5-14z"/><path d="M229.5 158.5h15v66h68v35h-68v82h68v35h-68v63c-55.449-.681-97.282-24.681-125.5-72-8.402-15.707-13.902-32.373-16.5-50h-52v-34h52c8.822-59.786 41.822-99.619 99-119.5 9.311-2.696 18.644-4.529 28-5.5zm129 0c63.644 5.065 106.81 37.398 129.5 97 3.108 9.095 4.941 18.428 5.5 28h54v34h-55c-8.132 53.633-37.132 91.133-87 112.5a154.09 154.09 0 0 1-47 9.5v-281z" fill="#ffffff"/></svg>
