<svg xmlns="http://www.w3.org/2000/svg" width="24pt" height="24pt" viewBox="0 0 20 20" fill="#000"><path d="M2.985 16.062V2.972c.001-.308.235-.558.524-.559h10.294c.332.02.648.157.897.392l1.188 1.238c.225.261.357.597.375.95v11.07c-.001.309-.236.559-.525.559H3.508c-.289-.001-.523-.251-.523-.559zm2.437-1.122c.001.308.235.558.524.559H13.3c.289-.001.524-.25.524-.559v-3.777c-.001-.308-.235-.558-.524-.559H5.948c-.29 0-.525.25-.525.559v3.777zm.552-6.918c.001.308.235.558.524.56h6.26c.29-.001.524-.251.524-.56V3.976c-.001-.308-.235-.558-.524-.559H6.5c-.289.001-.524.25-.524.559l-.001 4.047zm4.809-.747h1.336V4.689h-1.336v2.587z"/></svg>
