<svg xmlns="http://www.w3.org/2000/svg" fill="#ccc" width="21pt" height="21pt" viewBox="0 0 32 32" fill-rule="evenodd" stroke-linejoin="round" stroke-miterlimit="2"><path d="M12.965 5.462l-4.979.008a5.5 5.5 0 0 0-5.49 5.5V24c0 1.459.579 2.858 1.611 3.889A5.5 5.5 0 0 0 7.996 29.5h13.003a5.5 5.5 0 0 0 5.5-5.5v-5.004a1.5 1.5 0 1 0-3 0V24a2.5 2.5 0 0 1-2.5 2.5H7.996a2.5 2.5 0 0 1-2.5-2.5V10.97a2.5 2.5 0 0 1 2.496-2.5l4.979-.008a1.5 1.5 0 1 0-.006-3zm7.081.949l-6.845 6.846a.99.99 0 0 0-.271.501l-1.081 5.152a1 1 0 0 0 1.175 1.186l5.194-1.038c.193-.039.371-.134.511-.274l6.845-6.845-5.528-5.528zm1.415-1.414l5.527 5.528L28.1 9.414a3.91 3.91 0 0 0 0-5.527 3.91 3.91 0 0 0-5.528-.001l-1.111 1.111z"/></svg>
