<svg xmlns="http://www.w3.org/2000/svg" fill="#ccc" width="48" height="48"><path d="M41.253 19.782l-.992-.992A22.926 22.926 0 0 0 24 12.055 22.926 22.926 0 0 0 7.74 18.79l-.992.992a5.964 5.964 0 0 0 0 8.435l.992.992A22.926 22.926 0 0 0 24 35.945a22.926 22.926 0 0 0 16.26-6.735l.992-.992a5.964 5.964 0 0 0 0-8.435zM24 14.458a1.193 1.193 0 1 1 0 2.386 4.771 4.771 0 0 0-4.771 4.771 1.193 1.193 0 1 1-2.386 0A7.157 7.157 0 0 1 24 14.458zm15.566 12.074l-.992.992A20.468 20.468 0 0 1 24 33.559a20.468 20.468 0 0 1-14.574-6.036l-.992-.992A3.56 3.56 0 0 1 7.387 24a3.58 3.58 0 0 1 1.047-2.531l.992-.992a20.58 20.58 0 0 1 6.98-4.588c-1.26 1.644-1.944 3.655-1.949 5.725a9.542 9.542 0 1 0 19.085 0c-.005-2.071-.689-4.082-1.949-5.725a20.58 20.58 0 0 1 6.98 4.588l.992.992A3.56 3.56 0 0 1 40.613 24a3.58 3.58 0 0 1-1.047 2.531z"/><path d="M2 16V2h14m16 0h14v14m0 16v14H32m-16 0H2V32" fill="none" stroke="#ccc" stroke-width="2" stroke-linecap="round" stroke-linejoin="round"/></svg>
