<svg xmlns="http://www.w3.org/2000/svg" fill="#ccc" viewBox="0 0 412.123 412.122"><path d="M206.061 0C92.441 0 0 92.436 0 206.062s92.441 206.06 206.061 206.06 206.062-92.432 206.062-206.061S319.677 0 206.061 0zM54.474 206.062c0-83.587 68-151.588 151.587-151.588 32.816 0 63.21 10.513 88.047 28.307L82.78 294.108c-17.788-24.837-28.306-55.23-28.306-88.046zm151.587 151.587c-31.129 0-60.083-9.446-84.187-25.594l210.181-210.182a150.77 150.77 0 0 1 25.593 84.188c0 83.59-67.997 151.588-151.587 151.588z"/></svg>
