<svg xmlns="http://www.w3.org/2000/svg" viewBox="0 0 360 360">
<g fill-rule="evenodd">
	<circle cx="180" cy="180" r="180" fill="#135" />
	<circle cx="180" cy="180" r="145" fill="#135" stroke="#ccc" stroke-width="20" />
</g>
<path fill="#fff" d="M251 138q0 10.986-3.223 19.629-3.223 8.643-9.229 15.967-6.006 7.324-19.629 17.285l-11.719 8.643q-10.547 7.617-15.674 16.113-5.127 8.35-5.273 18.311h-25.635q.293-10.107 3.076-17.725 2.93-7.617 7.471-13.477 4.541-5.859 10.254-10.4 5.713-4.687 11.572-8.789 5.859-4.248 11.426-8.35 5.713-4.248 10.107-9.375 4.395-5.127 7.031-11.572 2.783-6.445 2.783-15.088 0-16.699-11.426-26.367-11.279-9.668-31.787-9.668-20.508 0-32.52 10.254-12.012 10.254-14.062 28.125l-26.953-1.758q3.809-29.004 22.852-44.531 19.043-15.527 50.391-15.527 32.666 0 51.416 15.527 18.75 15.381 18.75 42.773zm-91.553 151.172v-29.443h28.564v29.443z"/>
</svg>
