<svg xmlns="http://www.w3.org/2000/svg" fill="#000" viewBox="0 0 376.516 376.516"><path d="M343.657 237.412c-21.188 1.306-49.053 22.476-75.93 34.648-32.939 14.916-84.217 2.924-84.222 2.924 7.91-3.713 40.057-11.369 46.526-14.209 34.411-15.146 31.495-46.689 15.106-46.422-21.652.346-34.362 5.659-77.566 11.551-32.746 4.451-71.476 2.824-90.052 9.916-26.224 10.017-68.458 77.41-68.458 77.41l65.3 63.285s40.43-39.817 60.099-39.817c44.823 0 46.633-.599 88.255-2.864 17.699-.946 21.393-1.673 31.521-5.087 53.951-18.24 111.881-66.818 112.945-72.647 2.466-13.55-12.337-19.364-23.524-18.688zM123.206 100.449l10.432 1.844c.097.015.19.013.286.023.427 6.312 1.559 12.443 3.349 18.279-.129.056-.253.097-.373.18l-9.178 5.289c-1.571.914-2.717 2.406-3.188 4.151a6.83 6.83 0 0 0 .688 5.19l12.26 21.245a6.86 6.86 0 0 0 5.932 3.433 6.69 6.69 0 0 0 3.414-.932l9.176-5.29c.213-.117.405-.273.59-.425a82.5 82.5 0 0 0 14.12 11.771 5.54 5.54 0 0 0-.338.709l-3.622 9.967a6.83 6.83 0 0 0 .224 5.228c.77 1.644 2.156 2.903 3.863 3.539l23.048 8.392a6.96 6.96 0 0 0 2.343.405c2.795 0 5.416-1.72 6.423-4.504l3.623-9.956c.104-.277.165-.558.229-.837 3.006.33 6.061.525 9.152.525 3.1 0 6.15-.195 9.155-.526.065.279.126.559.226.836l3.623 9.958a6.86 6.86 0 0 0 3.539 3.868c.916.415 1.898.634 2.895.634a7.22 7.22 0 0 0 2.336-.402l23.051-8.393c3.553-1.299 5.381-5.216 4.092-8.767l-3.625-9.967c-.098-.255-.215-.49-.338-.71 5.135-3.396 9.869-7.335 14.115-11.772.197.152.375.309.592.426l9.178 5.291a6.69 6.69 0 0 0 3.422.931c.592 0 1.191-.09 1.77-.236 1.746-.477 3.248-1.619 4.15-3.196l12.266-21.245a6.84 6.84 0 0 0-2.504-9.34l-9.176-5.29c-.123-.083-.252-.125-.367-.181 1.777-5.835 2.912-11.967 3.338-18.278.094-.012.189-.009.289-.024l10.434-1.843a6.85 6.85 0 0 0 4.42-2.807c1.037-1.479 1.443-3.32 1.133-5.116l-4.266-24.147a6.76 6.76 0 0 0-2.809-4.413c-1.49-1.043-3.324-1.46-5.113-1.148l-10.414 1.84c-2.48-5.813-5.633-11.282-9.332-16.333l6.742-8.022c1.17-1.388 1.734-3.191 1.574-4.988-.16-1.814-1.025-3.481-2.422-4.644l-18.785-15.772c-1.393-1.161-3.186-1.732-4.996-1.579a6.89 6.89 0 0 0-4.645 2.421l-6.602 7.876a80.1 80.1 0 0 0-17.836-6.563V6.839c0-3.766-3.061-6.839-6.836-6.839h-24.529c-3.781 0-6.846 3.074-6.846 6.839v10.216a80.2 80.2 0 0 0-17.832 6.563l-6.608-7.875c-1.165-1.388-2.835-2.254-4.643-2.421a6.88 6.88 0 0 0-4.989 1.579l-18.795 15.772c-2.893 2.428-3.272 6.73-.842 9.631l6.738 8.021a82.66 82.66 0 0 0-9.332 16.333l-10.412-1.839a6.84 6.84 0 0 0-5.106 1.147c-1.488 1.025-2.5 2.616-2.815 4.413l-4.255 24.147a6.82 6.82 0 0 0 5.539 7.923zm38.722-3.089c0-29.639 24.104-53.738 53.731-53.738s53.738 24.1 53.738 53.738-24.107 53.736-53.738 53.736-53.731-24.1-53.731-53.736z"/></svg>
