<svg xmlns="http://www.w3.org/2000/svg" fill="#000" viewBox="0 0 358.397 358.397"><path d="M334.6 186.963c-21.191 1.305-49.056 22.493-75.92 34.646-32.929 14.917-84.208 2.924-84.213 2.924 7.889-3.695 40.04-11.37 46.52-14.21 34.406-15.124 31.506-46.689 15.115-46.423-21.662.344-34.365 5.679-77.576 11.552-32.746 4.47-71.467 2.843-90.043 9.935C42.252 195.385 0 262.779 0 262.779l65.322 63.286s40.428-39.819 60.092-39.819c44.82 0 46.621-.597 88.26-2.843 17.691-.967 21.396-1.673 31.5-5.105 53.957-18.242 111.881-66.818 112.947-72.646 2.486-13.552-12.31-19.367-23.521-18.689zm-189.102-56.628c20.209 0 36.666-16.316 36.91-36.464h83.426v23.9c0 2.577 2.105 4.681 4.703 4.681h17.127c2.603 0 4.703-2.104 4.703-4.681v-10.406h22.723v10.406c0 2.577 2.103 4.681 4.703 4.681h17.164c2.59 0 4.693-2.104 4.693-4.681V73.458a4.7 4.7 0 0 0-4.693-4.701l-154.549.033c-.244-20.145-16.701-36.458-36.91-36.458-20.395 0-36.953 16.578-36.953 36.937v24.132c0 20.357 16.558 36.934 36.953 36.934zm-15.319-61.066c0-8.445 6.855-15.314 15.318-15.314 8.43 0 15.316 6.869 15.316 15.314v24.132c0 8.446-6.887 15.312-15.316 15.312-8.463 0-15.318-6.866-15.318-15.312V69.269z"/></svg>