<svg xmlns="http://www.w3.org/2000/svg" fill="#cccccc" width="48" height="48"><path d="M15.964 15.386c-1.398.368-2.476 1.091-5.124 3.432-2.195 1.925-3.335 2.783-4.622 3.457-1.422.735-2.587 1.03-4.303 1.128l-1.434.073.491 1.055c2.109 4.609 6.988 8.766 12.48 10.654 3.813 1.312 7.405 1.753 12.26 1.508 4.818-.233 8.091-1.005 11.512-2.685 4.303-2.121 7.785-5.468 9.648-9.28l.65-1.349-1.557-.09c-3.102-.159-4.843-1.042-8.729-4.438-2.82-2.452-3.972-3.2-5.456-3.506-.846-.172-2.28-.1-3.494.196-1.116.27-2.918 1.164-3.616 1.802l-.601.54-.735-.54c-2.121-1.569-5.468-2.452-7.368-1.961zM4.808 25.758c4.426.503 11.965.76 22.68.76 10.788 0 16.354-.282 17.507-.883.27-.147.27.04-.012.282-1.128 1.005-5.063 1.717-12.162 2.207-2.844.196-12.554.196-15.447 0-6.007-.417-10.617-1.152-13.142-2.133-.527-.196-.956-.392-.956-.417 0-.04.098-.04.221 0 .11.02.711.11 1.312.183zM39 1c-4.418.001-7.999 3.582-8 8 .045 4.387 3.613 7.919 8 7.92s7.955-3.533 8-7.92c-.001-4.418-3.582-7.999-8-8zm6.047 6.977v1.992H32.953V7.977z"/></svg>
