<svg xmlns="http://www.w3.org/2000/svg" fill="#ccc" viewBox="0 0 1000 1000"><path d="M332.58 278.79c-29.12 7.66-51.59 22.73-106.76 71.51-45.72 40.1-69.47 57.98-96.29 72.03-29.63 15.32-53.89 21.45-89.65 23.5L10 447.36l10.22 21.97c43.93 96.03 145.58 182.62 260 221.95 79.43 27.33 154.27 36.53 255.41 31.42 100.38-4.85 168.57-20.94 239.83-55.94 89.65-44.19 162.18-113.91 201-193.34l13.54-28.1-32.44-1.79c-64.62-3.32-100.89-21.71-181.85-92.46-58.74-51.08-82.75-66.66-113.66-73.05-17.62-3.58-47.51-2.04-72.79 4.09-23.24 5.62-60.79 24.26-75.34 37.54l-12.52 11.24-15.32-11.24c-44.19-32.69-113.91-51.08-153.5-40.86zM100.16 494.86c92.2 10.47 249.28 15.84 472.5 15.84 224.76 0 340.71-5.88 364.72-18.39 5.62-3.06 5.62.77-.25 5.88-23.5 20.94-105.48 35.76-253.37 45.97-59.26 4.08-261.54 4.08-321.81 0-125.15-8.69-221.18-24.01-273.8-44.44-10.98-4.09-19.92-8.17-19.92-8.68 0-.77 2.04-.77 4.6 0 2.3.5 14.81 2.29 27.33 3.82z"/></svg>
