<?xml version="1.0" standalone="no"?>
<svg version="1.0" xmlns="http://www.w3.org/2000/svg"
 width="42.000000pt" height="66.000000pt" viewBox="0 0 42.000000 66.000000"
 preserveAspectRatio="xMidYMid meet">

<g transform="translate(0.000000,66.000000) scale(0.100000,-0.100000)"
fill="#000000" stroke="none">
<path d="M165 653 c-30 -8 -62 -32 -82 -61 -13 -20 -19 -54 -23 -132 l-5 -105
-28 -3 -27 -3 2 -172 3 -172 203 -3 c132 -1 202 1 202 8 0 5 1 83 1 173 l0
162 -153 5 -153 5 -3 40 c-2 22 -1 64 3 93 20 165 205 154 205 -13 0 -42 2
-45 26 -45 27 0 27 0 21 60 -6 66 -28 113 -68 142 -27 20 -89 31 -124 21z"/>
</g>
</svg>
