<?xml version="1.0" standalone="no"?>
<svg version="1.0" xmlns="http://www.w3.org/2000/svg"
 width="42.000000pt" height="62.000000pt" viewBox="0 0 42.000000 62.000000"
 preserveAspectRatio="xMidYMid meet">

<g transform="translate(0.000000,62.000000) scale(0.100000,-0.100000)"
fill="#ccc" stroke="none">
<path d="M165 613 c-70 -19 -98 -66 -105 -173 -5 -84 -5 -85 -33 -88 l-27 -3
2 -172 3 -172 203 -3 c132 -1 202 1 202 8 0 5 1 83 1 173 l0 162 -24 3 c-23 3
-25 7 -29 81 -5 85 -24 130 -69 163 -27 20 -89 31 -124 21z m85 -58 c42 -22
60 -63 60 -140 l0 -66 -102 3 -103 3 2 69 c1 74 19 110 64 133 31 16 44 16 79
-2z"/>
</g>
</svg>
