<?xml version="1.0" encoding="UTF-8"?>
<svg enable-background="new 0 0 512 512" version="1.1" viewBox="0 0 512 512" fill="#ccc" xml:space="preserve" xmlns="http://www.w3.org/2000/svg">
	<path d="m82 113.7h-50.7c-14 0-25.3 11.3-25.3 25.3s11.3 25.3 25.3 25.3h50.7c14 0 25.3-11.3 25.3-25.3s-11.3-25.3-25.3-25.3z"/>
	<path d="m82 230.7h-50.7c-14 0-25.3 11.3-25.3 25.3s11.3 25.3 25.3 25.3h50.7c14 0 25.3-11.3 25.3-25.3s-11.3-25.3-25.3-25.3z"/>
	<path d="m82 347.7h-50.7c-14 0-25.3 11.3-25.3 25.3s11.3 25.3 25.3 25.3h50.7c14 0 25.3-11.3 25.3-25.3s-11.3-25.3-25.3-25.3z"/>
	<path d="m358.8 11.6h-211.7c-45.6 0-83.3 36.5-89.5 84h24.4c23.9 0 43.4 19.5 43.4 43.4s-19.5 43.4-43.4 43.4h-25.3v30.2h25.3c23.9 0 43.4 19.5 43.4 43.4s-19.5 43.4-43.4 43.4h-25.3v30.2h25.3c23.9 0 43.4 19.5 43.4 43.4s-19.5 43.4-43.4 43.4h-24.4c6.2 47.5 43.9 84 89.5 84h211.7c50 0 90.5-43.8 90.5-97.8v-293.2c0-54-40.5-97.8-90.5-97.8z"/>
	<path d="m402.53 271.2v-30.882l-36.911-15.379c-1.0268-2.8952-2.1077-5.6977-3.4356-8.4461l14.9-37.097-21.841-21.833-36.765 15.14c-2.8025-1.3588-5.6668-2.5014-8.6237-3.5591l-15.649-36.672h-30.882l-15.263 36.548c-3.0727 1.0886-6.0296 2.2312-8.9557 3.6209l-36.703-14.746-21.833 21.833 14.962 36.371c-1.4514 2.9878-2.6249 6.0296-3.7444 9.1719l-36.309 15.526v30.882l36.34 15.14c1.1195 3.1345 2.3239 6.1841 3.7676 9.1719l-14.684 36.61 21.833 21.833 36.464-15.016c2.926 1.3897 5.9138 2.5014 8.9866 3.5591l15.618 36.548h30.882l15.286-36.734c2.926-1.0886 5.8212-2.2312 8.5928-3.5591l37.035 14.839 21.833-21.833-15.202-36.85c1.297-2.7716 2.3547-5.5819 3.3816-8.4462zm-123.77 31.121c-25.57 0-46.323-20.753-46.323-46.323 0-25.57 20.752-46.323 46.323-46.323 25.57 0 46.323 20.753 46.323 46.323 0 25.57-20.753 46.323-46.323 46.323z" fill="#c00"/>
	<path d="m497.6 188.3-30.2 12.6v-97.4l30.2 12.6c5.1 2.1 8.4 6.8 8.4 11.9v48.4c0 5.1-3.3 9.8-8.4 11.9z"/>
	<path d="m505.1 203.7-37.7 17.1v52.5l30.2-13.7c5.1-2.3 8.4-7.4 8.4-13v-43.4c-0.3 0.1-0.6 0.3-0.9 0.5z"/>
	<path d="m505.1 276-37.7 17.1v52.5l30.2-13.7c5.1-2.3 8.4-7.4 8.4-13v-43.4c-0.3 0.2-0.6 0.4-0.9 0.5z"/>
	<path d="m505.1 348.4-37.7 17.1v52.5l30.2-13.7c5.1-2.3 8.4-7.4 8.4-13v-43.4c-0.3 0.2-0.6 0.4-0.9 0.5z"/>
</svg>
