<svg xmlns="http://www.w3.org/2000/svg" viewBox="20 20 141.667 141.667" fill="#ccc"><path d="M158.938 66.516v-10.04l-12-5-1.117-2.746 4.844-12.06-7.1-7.098-11.952 4.922c-.911-.442-1.842-.813-2.803-1.157l-5.087-11.922h-10.039l-4.962 11.882-2.911 1.177-11.932-4.794-7.098 7.098 4.864 11.824c-.472.971-.853 1.96-1.217 2.982l-11.804 5.047V66.67l11.814 4.922 1.225 2.982-4.774 11.902 7.098 7.098 11.854-4.882c.951.452 1.923.813 2.921 1.157l5.077 11.882h10.039l4.969-11.942 2.793-1.157 12.04 4.824 7.098-7.098-4.942-11.979c.422-.901.766-1.815 1.099-2.746zm-40.235 10.117c-8.313 0-15.059-6.746-15.059-15.059s6.746-15.059 15.059-15.059 15.059 6.746 15.059 15.059-6.746 15.059-15.059 15.059zM70.96 105.59a1.97 1.97 0 0 1-1.969 1.969c-2.089 0-4.092.83-5.569 2.307s-2.307 3.48-2.307 5.568a1.97 1.97 0 0 1-1.969 1.967 1.97 1.97 0 0 1-1.969-1.967 7.87 7.87 0 0 0-2.307-5.568 7.88 7.88 0 0 0-5.569-2.307 1.97 1.97 0 0 1-1.966-1.969 1.97 1.97 0 0 1 1.966-1.969c2.089 0 4.092-.83 5.569-2.307s2.307-3.48 2.307-5.568a1.97 1.97 0 0 1 1.969-1.967 1.97 1.97 0 0 1 1.969 1.967 7.87 7.87 0 0 0 2.307 5.568 7.88 7.88 0 0 0 5.569 2.307 1.97 1.97 0 0 1 1.969 1.969zm-14.767 16.426a2.36 2.36 0 0 1-2.362 2.362c-2.609 0-4.724 2.115-4.724 4.725 0 1.305-1.058 2.362-2.362 2.362s-2.362-1.058-2.362-2.362c0-2.609-2.115-4.725-4.724-4.725-1.303-.003-2.358-1.059-2.358-2.362a2.36 2.36 0 0 1 2.358-2.362c1.253 0 2.455-.498 3.341-1.384s1.384-2.088 1.384-3.341c0-1.305 1.058-2.362 2.362-2.362s2.362 1.058 2.362 2.362c0 2.609 2.115 4.725 4.724 4.725 1.305 0 2.362 1.058 2.362 2.362zm11.181-51.594a2.36 2.36 0 0 1-2.362 2.362c-2.609 0-4.724 2.115-4.724 4.725 0 1.304-1.058 2.362-2.362 2.362s-2.362-1.057-2.362-2.362c0-2.609-2.115-4.725-4.724-4.725-1.303-.003-2.358-1.059-2.358-2.362a2.36 2.36 0 0 1 2.358-2.362c1.253 0 2.455-.498 3.341-1.384s1.384-2.088 1.384-3.341c0-1.304 1.058-2.362 2.362-2.362s2.362 1.057 2.362 2.362c0 1.253.498 2.455 1.384 3.341s2.088 1.384 3.341 1.384c1.305 0 2.362 1.058 2.362 2.362zm-8.228 17.49a2.36 2.36 0 0 1-2.362 2.362c-6.523 0-11.811 5.288-11.811 11.811 0 1.305-1.058 2.362-2.362 2.362s-2.362-1.058-2.362-2.362c0-6.523-5.288-11.811-11.811-11.811-1.305 0-2.362-1.058-2.362-2.362s1.058-2.362 2.362-2.362c6.523 0 11.811-5.288 11.811-11.811 0-1.305 1.058-2.362 2.362-2.362s2.362 1.058 2.362 2.362c0 6.523 5.288 11.811 11.811 11.811a2.36 2.36 0 0 1 2.362 2.362zM45.141 23.328c-3.731.82-7.805 3.969-9.446 7.355-3.201 6.509-1.058 14.314 4.974 18.23 4.366 2.805 10.53 2.884 14.843.185 5.345-3.334 7.885-9.631 6.324-15.69-1.852-7.223-9.26-11.695-16.695-10.081zm-7.144 33.867c-.926.212-2.408.741-3.307 1.244-1.931 1.005-4.815 3.757-5.874 5.583-1.693 2.884-1.852 3.863-4.022 22.834-2.249 19.553-2.222 19.209-.847 21.96 1.032 2.09 4.207 4.577 5.9 4.604 1.164.026 1.164.132 1.852 9.419l2.778 33.972c.132.265.582.741.953 1.032.688.556.953.556 12.726.556 13.176 0 13.123 0 13.838-1.561.159-.37.609-4.551.953-9.287l2.117-28.31c.265-3.466.529-5.477.714-5.609a2.02 2.02 0 0 1 .873-.212c1.032 0 3.281-1.376 4.577-2.805 1.005-1.085 1.482-1.905 1.879-3.201.661-2.17.661-2.514-.132-9.499l-.926-8.176-1.058-9.128-1.032-9.128c-.529-4.657-1.773-7.435-4.657-10.345-2.064-2.117-4.154-3.307-6.8-3.942-2.275-.529-18.045-.529-20.505 0z"/></svg>
