<svg xmlns="http://www.w3.org/2000/svg" viewBox="20 20 141.667 141.667" fill="#ccc"><path d="M70.96 105.59a1.97 1.97 0 0 1-1.969 1.969c-2.089 0-4.092.83-5.569 2.307s-2.307 3.48-2.307 5.568a1.97 1.97 0 0 1-1.969 1.967 1.97 1.97 0 0 1-1.969-1.967 7.87 7.87 0 0 0-2.307-5.568 7.88 7.88 0 0 0-5.569-2.307 1.97 1.97 0 0 1-1.966-1.969 1.97 1.97 0 0 1 1.966-1.969c2.089 0 4.092-.83 5.569-2.307s2.307-3.48 2.307-5.568a1.97 1.97 0 0 1 1.969-1.967 1.97 1.97 0 0 1 1.969 1.967 7.87 7.87 0 0 0 2.307 5.568 7.88 7.88 0 0 0 5.569 2.307 1.97 1.97 0 0 1 1.969 1.969zm-14.767 16.426a2.36 2.36 0 0 1-2.362 2.362c-2.609 0-4.724 2.115-4.724 4.725 0 1.305-1.058 2.362-2.362 2.362s-2.362-1.058-2.362-2.362c0-2.609-2.115-4.725-4.724-4.725-1.303-.003-2.358-1.059-2.358-2.362a2.36 2.36 0 0 1 2.358-2.362c1.253 0 2.455-.498 3.341-1.384s1.384-2.088 1.384-3.341c0-1.305 1.058-2.362 2.362-2.362s2.362 1.058 2.362 2.362c0 2.609 2.115 4.725 4.724 4.725 1.305 0 2.362 1.058 2.362 2.362zm11.181-51.594a2.36 2.36 0 0 1-2.362 2.362c-2.609 0-4.724 2.115-4.724 4.725 0 1.304-1.058 2.362-2.362 2.362s-2.362-1.057-2.362-2.362c0-2.609-2.115-4.725-4.724-4.725-1.303-.003-2.358-1.059-2.358-2.362a2.36 2.36 0 0 1 2.358-2.362c1.253 0 2.455-.498 3.341-1.384s1.384-2.088 1.384-3.341c0-1.304 1.058-2.362 2.362-2.362s2.362 1.057 2.362 2.362c0 1.253.498 2.455 1.384 3.341s2.088 1.384 3.341 1.384c1.305 0 2.362 1.058 2.362 2.362zm-8.228 17.49a2.36 2.36 0 0 1-2.362 2.362c-6.523 0-11.811 5.288-11.811 11.811 0 1.305-1.058 2.362-2.362 2.362s-2.362-1.058-2.362-2.362c0-6.523-5.288-11.811-11.811-11.811-1.305 0-2.362-1.058-2.362-2.362s1.058-2.362 2.362-2.362c6.523 0 11.811-5.288 11.811-11.811 0-1.305 1.058-2.362 2.362-2.362s2.362 1.058 2.362 2.362c0 6.523 5.288 11.811 11.811 11.811a2.36 2.36 0 0 1 2.362 2.362zM45.141 23.328c-3.731.82-7.805 3.969-9.446 7.355-3.201 6.509-1.058 14.314 4.974 18.23 4.366 2.805 10.53 2.884 14.843.185 5.345-3.334 7.885-9.631 6.324-15.69-1.852-7.223-9.26-11.695-16.695-10.081zm-7.144 33.867c-.926.212-2.408.741-3.307 1.244-1.931 1.005-4.815 3.757-5.874 5.583-1.693 2.884-1.852 3.863-4.022 22.834-2.249 19.553-2.222 19.209-.847 21.96 1.032 2.09 4.207 4.577 5.9 4.604 1.164.026 1.164.132 1.852 9.419l2.778 33.972c.132.265.582.741.953 1.032.688.556.953.556 12.726.556 13.176 0 13.123 0 13.838-1.561.159-.37.609-4.551.953-9.287l2.117-28.31c.265-3.466.529-5.477.714-5.609a2.02 2.02 0 0 1 .873-.212c1.032 0 3.281-1.376 4.577-2.805 1.005-1.085 1.482-1.905 1.879-3.201.661-2.17.661-2.514-.132-9.499l-.926-8.176-1.058-9.128-1.032-9.128c-.529-4.657-1.773-7.435-4.657-10.345-2.064-2.117-4.154-3.307-6.8-3.942-2.275-.529-18.045-.529-20.505 0zm122.75-3.728c-.067-.292-.134-.455-.194-.606-.121-.282-.237-.495-.372-.737-.499-.868-1.301-2.044-2.399-3.524a95.74 95.74 0 0 0-6.456-7.754c-2.561-2.756-5.401-5.471-8.293-7.52-4.09-2.894-8.067-5.145-12.14-6.674s-8.236-2.325-12.596-2.323-8.526.792-12.596 2.323-8.05 3.78-12.14 6.673c-4.302 3.057-8.537 7.595-11.809 11.537-1.632 1.971-3.007 3.787-3.999 5.203-.498.71-.897 1.316-1.205 1.829a9.28 9.28 0 0 0-.41.753 4.33 4.33 0 0 0-.191.461c-.033.097-.068.21-.101.36a2.81 2.81 0 0 0-.07.628 2.86 2.86 0 0 0 .07.628c.066.292.134.453.194.606a7.21 7.21 0 0 0 .372.736c.499.868 1.301 2.046 2.399 3.525a95.46 95.46 0 0 0 6.456 7.756c2.561 2.756 5.401 5.469 8.293 7.519 4.09 2.894 8.066 5.144 12.14 6.674s8.237 2.325 12.596 2.323c4.359.003 8.526-.793 12.596-2.323s8.05-3.78 12.14-6.673c4.301-3.057 8.537-7.595 11.809-11.537 1.632-1.971 3.007-3.786 3.999-5.203.498-.711.897-1.316 1.205-1.83a9.46 9.46 0 0 0 .41-.752c.062-.133.124-.269.191-.463a3.17 3.17 0 0 0 .101-.359c.032-.151.068-.339.07-.628a2.86 2.86 0 0 0-.07-.628zm-42.45 20.806a20.18 20.18 0 0 1-20.178-20.178c0-11.141 9.033-20.178 20.178-20.178s20.178 9.037 20.178 20.178a20.18 20.18 0 0 1-20.178 20.178zm5.052-21.111c-1.059.194-2.143-.181-2.851-.991a3.05 3.05 0 0 1-.603-2.959l1.314-4.018a9.35 9.35 0 0 0-2.912-.465c-5.174 0-9.366 4.191-9.366 9.365a9.37 9.37 0 0 0 9.366 9.368 9.37 9.37 0 0 0 9.366-9.368 9.34 9.34 0 0 0-.162-1.7z"/></svg>
