<svg xmlns="http://www.w3.org/2000/svg" viewBox="20 20 141.667 141.667" fill="#ccc"><path d="M70.96 105.59a1.97 1.97 0 0 1-1.969 1.969c-2.089 0-4.092.83-5.569 2.307s-2.307 3.48-2.307 5.568a1.97 1.97 0 0 1-1.969 1.967 1.97 1.97 0 0 1-1.969-1.967 7.87 7.87 0 0 0-2.307-5.568 7.88 7.88 0 0 0-5.569-2.307 1.97 1.97 0 0 1-1.966-1.969 1.97 1.97 0 0 1 1.966-1.969c2.089 0 4.092-.83 5.569-2.307s2.307-3.48 2.307-5.568a1.97 1.97 0 0 1 1.969-1.967 1.97 1.97 0 0 1 1.969 1.967 7.87 7.87 0 0 0 2.307 5.568 7.88 7.88 0 0 0 5.569 2.307 1.97 1.97 0 0 1 1.969 1.969zm-14.767 16.426a2.36 2.36 0 0 1-2.362 2.362c-2.609 0-4.724 2.115-4.724 4.725 0 1.305-1.058 2.362-2.362 2.362s-2.362-1.058-2.362-2.362c0-2.609-2.115-4.725-4.724-4.725-1.303-.003-2.358-1.059-2.358-2.362a2.36 2.36 0 0 1 2.358-2.362c1.253 0 2.455-.498 3.341-1.384s1.384-2.088 1.384-3.341c0-1.305 1.058-2.362 2.362-2.362s2.362 1.058 2.362 2.362c0 2.609 2.115 4.725 4.724 4.725 1.305 0 2.362 1.058 2.362 2.362zm11.181-51.594a2.36 2.36 0 0 1-2.362 2.362c-2.609 0-4.724 2.115-4.724 4.725 0 1.304-1.058 2.362-2.362 2.362s-2.362-1.057-2.362-2.362c0-2.609-2.115-4.725-4.724-4.725-1.303-.003-2.358-1.059-2.358-2.362a2.36 2.36 0 0 1 2.358-2.362c1.253 0 2.455-.498 3.341-1.384s1.384-2.088 1.384-3.341c0-1.304 1.058-2.362 2.362-2.362s2.362 1.057 2.362 2.362c0 1.253.498 2.455 1.384 3.341s2.088 1.384 3.341 1.384c1.305 0 2.362 1.058 2.362 2.362zm-8.228 17.49a2.36 2.36 0 0 1-2.362 2.362c-6.523 0-11.811 5.288-11.811 11.811 0 1.305-1.058 2.362-2.362 2.362s-2.362-1.058-2.362-2.362c0-6.523-5.288-11.811-11.811-11.811-1.305 0-2.362-1.058-2.362-2.362s1.058-2.362 2.362-2.362c6.523 0 11.811-5.288 11.811-11.811 0-1.305 1.058-2.362 2.362-2.362s2.362 1.058 2.362 2.362c0 6.523 5.288 11.811 11.811 11.811a2.36 2.36 0 0 1 2.362 2.362zM45.141 23.328c-3.731.82-7.805 3.969-9.446 7.355-3.201 6.509-1.058 14.314 4.974 18.23 4.366 2.805 10.53 2.884 14.843.185 5.345-3.334 7.885-9.631 6.324-15.69-1.852-7.223-9.26-11.695-16.695-10.081zm-7.144 33.867c-.926.212-2.408.741-3.307 1.244-1.931 1.005-4.815 3.757-5.874 5.583-1.693 2.884-1.852 3.863-4.022 22.834-2.249 19.553-2.222 19.209-.847 21.96 1.032 2.09 4.207 4.577 5.9 4.604 1.164.026 1.164.132 1.852 9.419l2.778 33.972c.132.265.582.741.953 1.032.688.556.953.556 12.726.556 13.176 0 13.123 0 13.838-1.561.159-.37.609-4.551.953-9.287l2.117-28.31c.265-3.466.529-5.477.714-5.609a2.02 2.02 0 0 1 .873-.212c1.032 0 3.281-1.376 4.577-2.805 1.005-1.085 1.482-1.905 1.879-3.201.661-2.17.661-2.514-.132-9.499l-.926-8.176-1.058-9.128-1.032-9.128c-.529-4.657-1.773-7.435-4.657-10.345-2.064-2.117-4.154-3.307-6.8-3.942-2.275-.529-18.045-.529-20.505 0zm84.009 49.667c12.305-.008 23.406-7.281 28.174-18.457s2.275-24.08-6.327-32.748V42.286c0-11.888-9.781-21.525-21.847-21.525s-21.847 9.637-21.847 21.526v13.372c-8.603 8.668-11.096 21.571-6.327 32.748s15.87 18.449 28.174 18.457zm4.369-27.023v9.803c0 2.378-1.956 4.305-4.369 4.305s-4.369-1.927-4.369-4.305v-9.803c-3.425-1.949-5.095-5.921-4.072-9.685s4.486-6.382 8.441-6.382 7.417 2.617 8.441 6.382-.646 7.737-4.072 9.685zm-17.478-37.553c0-7.133 5.869-12.915 13.108-12.915s13.108 5.782 13.108 12.915v7.245a30.69 30.69 0 0 0-26.216 0z"/></svg>
