<svg xmlns="http://www.w3.org/2000/svg" height="800" width="800" viewBox="0 0 512 512" fill="#ccc"><path d="M239.103 99.037c27.354 0 49.524-22.17 49.524-49.513C288.627 22.17 266.457 0 239.103 0S189.58 22.17 189.58 49.524c0 27.343 22.17 49.513 49.523 49.513zm188.258 142.116l-32.838-49.377c-7.974-11.666-18.555-21.326-30.88-28.235l-64.396-36.065c-11.802-5.514-20.726-9.021-31.937-7.509l-30.812 4.185a45.88 45.88 0 0 0-29.311 16.376l-58.651 62.42-53.718 19.796c-10.174 3.75-15.639 14.805-12.422 25.164l.252.795c3.16 10.183 13.653 16.201 24.039 13.808l43.778-10.107c10.919-2.519 21.288-7.015 30.57-13.275l30.445-20.473 10.756 81.74c.785 5.998-.427 12.083-3.44 17.335l-91.159 158.327c-6.502 11.279-2.655 25.697 8.595 32.266l.784.456c10.648 6.201 24.272 3.207 31.326-6.889l101.895-145.75 30.872 61.625a45.84 45.84 0 0 0 8.953 12.248l68.486 66.964c8.643 8.44 22.315 8.818 31.394.862l1.095-.95c4.651-4.079 7.48-9.844 7.848-16.016s-1.744-12.238-5.882-16.831l-57.827-64.416-31.414-113.697-.116.097-9.011-88.95 31.839 14.332L397.392 265c6.405 6.743 16.772 7.828 24.427 2.548l.523-.358c8.498-5.853 10.736-17.442 5.019-26.037z"/></svg>
