<?xml version="1.0" encoding="UTF-8"?>
<svg enable-background="new 0 0 300 300" version="1.1" viewBox="0 0 300 300" fill="#ccc" xml:space="preserve" xmlns="http://www.w3.org/2000/svg">
	<path d="m150 0c-82.839 0-150 67.161-150 150s67.156 150 150 150 150-67.163 150-150-67.164-150-150-150zm3e-3 232.95c-10.766 0-19.499-8.725-19.499-19.499h38.995c2e-3 10.774-8.73 19.499-19.496 19.499zm65.89-39.051h-5e-3v-1e-3c0 7.21-5.843 7.685-13.048 7.685h-105.68c-7.208 0-13.046-0.475-13.046-7.685v-1.242c0-5.185 3.045-9.625 7.42-11.731l4.142-35.753c0-26.174 18.51-48.02 43.152-53.174v-13.88c0-6.17 5.003-11.173 11.176-11.173 6.17 0 11.173 5.003 11.173 11.173v13.881c24.642 5.153 43.152 26.997 43.152 53.174l4.142 35.758c4.375 2.109 7.418 6.541 7.418 11.726v1.242z"/>
</svg>
