<?xml version="1.0" encoding="UTF-8"?>
<svg xmlns="http://www.w3.org/2000/svg" width="919" height="225" shape-rendering="geometricPrecision" image-rendering="optimizeQuality" fill-rule="evenodd" fill="#ccc">
	<path d="M 129.5,224.5 C 123.5,224.5 117.5,224.5 111.5,224.5C 106.904,208.544 102.404,192.544 98,176.5C 96.7084,168.443 97.875,160.776 101.5,153.5C 98.0013,149.173 95.0013,144.506 92.5,139.5C 94.5385,130.269 96.0385,120.935 97,111.5C 97.8834,108.898 99.3834,106.731 101.5,105C 105.523,104.855 109.356,104.021 113,102.5C 113.814,100.098 113.647,97.7649 112.5,95.5C 107.471,91.4327 105.138,86.0994 105.5,79.5C 105.492,74.3514 107.492,70.1847 111.5,67C 110.833,66.3333 110.167,65.6667 109.5,65C 103.557,63.4114 97.5571,62.0781 91.5,61C 88.2154,60.2411 85.2154,58.9078 82.5,57C 74.4592,56.0882 66.4592,54.9215 58.5,53.5C 57.5581,53.6082 56.7247,53.9415 56,54.5C 55.391,60.77 54.2243,66.9367 52.5,73C 54.3041,81.3839 56.8041,89.5506 60,97.5C 60.9061,101.279 61.4061,105.112 61.5,109C 60.0289,122.16 57.6956,135.16 54.5,148C 55.5017,157.643 55.6684,167.477 55,177.5C 53.4586,186.956 52.2919,196.456 51.5,206C 51.4404,210.617 52.1071,215.117 53.5,219.5C 53.5635,221.514 52.8968,223.181 51.5,224.5C 48.5,224.5 45.5,224.5 42.5,224.5C 41.5999,221.404 41.2666,218.404 41.5,215.5C 42.3727,212.882 43.0394,210.216 43.5,207.5C 42.5359,190.224 42.5359,172.891 43.5,155.5C 42.4091,141.781 40.9091,128.114 39,114.5C 37.1851,128.301 35.6851,142.135 34.5,156C 35.4853,173.743 35.4853,191.41 34.5,209C 36.7773,214.008 37.1106,219.175 35.5,224.5C 32.5,224.5 29.5,224.5 26.5,224.5C 25.1852,223.333 24.5186,221.833 24.5,220C 25.9447,215.456 26.6114,210.79 26.5,206C 25.8955,196.435 24.7288,186.935 23,177.5C 22.3188,168.486 22.4855,159.486 23.5,150.5C 21.9126,138.729 19.7459,127.063 17,115.5C 19.3744,101.958 15.3744,90.625 5,81.5C 3.39245,77.9439 1.55911,74.6106 -0.5,71.5C -0.5,69.1667 -0.5,66.8333 -0.5,64.5C 7.00528,57.159 14.0053,49.3256 20.5,41C 24.7745,40.1157 28.9412,38.949 33,37.5C 33.6667,35.5 33.6667,33.5 33,31.5C 26.2245,26.0934 23.8912,19.0934 26,10.5C 29.7246,0.584799 36.5579,-2.24853 46.5,2C 49.1353,3.96053 50.9686,6.46053 52,9.5C 52.7175,15.2247 52.3841,20.8913 51,26.5C 45.8882,28.5821 43.8882,32.2488 45,37.5C 60.8461,41.875 77.0128,46.375 93.5,51C 105.697,57.284 118.197,62.784 131,67.5C 132.285,73.9377 132.619,80.6044 132,87.5C 130.459,91.0497 128.126,94.0497 125,96.5C 124.192,98.5787 124.359,100.579 125.5,102.5C 128.974,104.062 132.64,104.895 136.5,105C 137.667,106.167 138.833,107.333 140,108.5C 141.875,118.004 143.708,127.504 145.5,137C 145.333,139.167 145.167,141.333 145,143.5C 142.244,146.695 139.744,150.028 137.5,153.5C 139.454,159.362 140.788,165.362 141.5,171.5C 138.273,189.401 134.273,207.068 129.5,224.5 Z M 21.5,54.5 C 26.6641,65.6947 26.4974,77.0281 21,88.5C 16.87,81.7386 12.37,75.2386 7.5,69C 13.0641,64.9377 17.7307,60.1043 21.5,54.5 Z M 103.5,131.5 C 104.641,134.64 104.808,137.973 104,141.5C 103.167,140.667 102.333,139.833 101.5,139C 102.867,136.699 103.534,134.199 103.5,131.5 Z M 134.5,133.5 C 135.771,135.109 136.771,136.942 137.5,139C 136.584,139.374 135.75,139.874 135,140.5C 133.585,138.157 133.418,135.823 134.5,133.5 Z"/>
	<path d="M172.5 75.5l71 .5c26.4 1.9 40.067 16.067 41 42.5-.81 24.971-13.477 39.471-38 43.5a676.44 676.44 0 0 1-54 1.5v58h-20v-146zm20 18c15.67-.167 31.337 0 47 .5 15.807.808 23.807 9.141 24 25-.341 14.987-8.008 23.321-23 25a1151.63 1151.63 0 0 1-48 .5v-51z"/>
	<path d="M576.5 224.5h-10c-22.022-4.859-35.189-18.526-39.5-41-3.811-20.221-.144-38.888 11-56 12.682-12.875 27.849-17.042 45.5-12.5 5.987 2.326 11.154 5.826 15.5 10.5.5-16.663.667-33.33.5-50h19v146h-18c.165-3.35-.002-6.683-.5-10-6.411 7.118-14.244 11.451-23.5 13zm-11-95c19.04-1.472 30.54 7.195 34.5 26 2.345 11.845 1.678 23.511-2 35-10.283 19.318-24.449 22.818-42.5 10.5-5.447-5.73-8.614-12.563-9.5-20.5-1.115-11.134-.449-22.134 2-33 3.379-8.544 9.212-14.544 17.5-18z"/>
	<path d="M343.5 224.5h-13c-23.835-4.035-33.335-18.035-28.5-42 4.812-10.146 12.646-16.646 23.5-19.5a968.15 968.15 0 0 0 49-8.5c.997-18.195-7.67-26.528-26-25-7.723-.924-14.557 1.076-20.5 6-2.798 4.607-5.298 9.273-7.5 14l-16-3c.831-14.429 8.164-24.262 22-29.5 14.167-3.799 28.501-4.465 43-2 12.202 2.869 19.702 10.369 22.5 22.5a1663.57 1663.57 0 0 0 2 72 30.38 30.38 0 0 0 4.5 11.5 67.23 67.23 0 0 1-20-.5 45.75 45.75 0 0 1-3.5-11c-8.958 8.397-19.458 13.397-31.5 15zm29-55c4.22 24.156-6.114 37.489-31 40-14.255-.085-21.088-7.085-20.5-21 2.332-5.664 6.499-9.164 12.5-10.5l28-5c3.872-.904 7.539-2.07 11-3.5z"/>
	<path d="M460.5 113.5c13.197-1.866 25.197.967 36 8.5 4.534 4.589 7.368 10.089 8.5 16.5l.5 83h-18a1059.34 1059.34 0 0 0-1.5-77c-3.121-9.576-9.788-14.576-20-15-12.962.649-21.629 6.982-26 19a934.98 934.98 0 0 0-1.5 73h-19v-106h17a84.9 84.9 0 0 0 .5 13c6.177-7.692 14.011-12.692 23.5-15z"/>
	<path d="M694.5 224.5h-12c-20.054-2.207-33.554-12.874-40.5-32-5.052-17.883-4.386-35.55 2-53 12.08-20.952 30.247-29.452 54.5-25.5 23.579 4.963 36.746 19.463 39.5 43.5 1.946 15.713-.387 30.713-7 45-8.907 12.865-21.074 20.199-36.5 22zm-13-95c19.793-2.021 31.96 6.645 36.5 26 2.421 12.28 1.421 24.28-3 36-10.919 17.355-25.419 21.188-43.5 11.5-9.739-9.212-14.406-20.546-14-34-.149-12.557 3.851-23.557 12-33 3.647-2.987 7.647-5.154 12-6.5z"/>
	<path d="M791.5 113.5a61.52 61.52 0 0 1 17 1.5c3.291.753 5.958 2.42 8 5-2.213 5.588-4.546 11.088-7 16.5-13.006-6.961-22.839-3.961-29.5 9a90.46 90.46 0 0 0-3 21c-.5 18.33-.667 36.664-.5 55h-18v-106h17a84.9 84.9 0 0 0 .5 13c3.765-6.601 8.932-11.601 15.5-15z"/>
	<path d="M918.5 220.5v1c-6.7.33-13.366-.003-20-1a45.75 45.75 0 0 1-3.5-11c-8.958 8.397-19.458 13.397-31.5 15h-13c-23.835-4.035-33.335-18.035-28.5-42 4.812-10.146 12.646-16.646 23.5-19.5a968.15 968.15 0 0 0 49-8.5c1.947-13.177-3.387-21.343-16-24.5a100.2 100.2 0 0 0-20 0 31.65 31.65 0 0 0-10.5 5.5c-2.798 4.607-5.298 9.273-7.5 14a163.12 163.12 0 0 0-15-2.5c-1.016-.519-1.682-1.353-2-2.5 4.565-18.802 16.565-28.968 36-30.5a144.18 144.18 0 0 1 24 0c15.298.976 24.798 8.809 28.5 23.5a1663.57 1663.57 0 0 0 2 72c.644 4.119 2.144 7.785 4.5 11zm-26-51c4.22 24.156-6.114 37.489-31 40-14.255-.085-21.088-7.085-20.5-21 2.332-5.664 6.499-9.164 12.5-10.5l28-5c3.872-.904 7.539-2.07 11-3.5z"/>
</svg>
