<?xml version="1.0" encoding="UTF-8"?>
<svg xmlns="http://www.w3.org/2000/svg" width="919" height="225" shape-rendering="geometricPrecision" image-rendering="optimizeQuality" fill-rule="evenodd" fill="#000">
	<path d="M34.5-.5h9c2.886 1.379 5.386 3.379 7.5 6 .925 5.124 2.092 10.124 3.5 15l-.5 3a51.53 51.53 0 0 0-9 8c-.987 5.356 1.346 8.023 7 8 14.484 2.916 28.984 6.749 43.5 11.5l16 8c7.544 1.445 14.21 4.445 20 9-.145.772-.478 1.439-1 2 1.051 5.204 2.718 10.204 5 15a11.34 11.34 0 0 0-1.5 3.5c-4.952 1.949-8.119 5.449-9.5 10.5.085 1.107.419 2.107 1 3a50.38 50.38 0 0 0 11 2 17.84 17.84 0 0 1 4.5 5.5 218.94 218.94 0 0 1 4 32c-2.713 3.592-5.547 7.092-8.5 10.5 3.813 7.375 5.313 15.208 4.5 23.5-3.416 15.751-7.083 31.418-11 47a295.05 295.05 0 0 1-17.5.5c-1.833-2.107-2.999-4.607-3.5-7.5l-11-41a47.44 47.44 0 0 1 3.5-22c-3.372-4.242-6.372-8.742-9-13.5l6.5-32.5c.903-1.201 2.069-2.035 3.5-2.5l8-1c4.163-1.816 4.997-4.649 2.5-8.5-4.23-2.18-7.397-5.347-9.5-9.5.277-1.892 1.277-3.225 3-4-1.734-6.46.266-11.46 6-15l-30-10c-8.703-.989-17.369-2.156-26-3.5-.695 6.142-2.029 12.142-4 18 2.119 9.859 4.952 19.525 8.5 29l.5 8.5a1007.89 1007.89 0 0 1-7 44 151.38 151.38 0 0 1 2 14.5 445.39 445.39 0 0 0-5 39 40.53 40.53 0 0 0 2 13c.11 1.874-.556 3.374-2 4.5a40.91 40.91 0 0 1-9 .5c-.835-3.207-1.169-6.374-1-9.5a16.23 16.23 0 0 1 1.5-3.5l.5-14a257.28 257.28 0 0 1 0-40.5L40 115.5l-1-3c-2.845 19.753-3.678 39.587-2.5 59.5l-2 21.5c1.191 9.313 1.691 18.646 1.5 28-1.18 1.184-2.68 1.851-4.5 2-3.682.497-6.016-1.003-7-4.5 1.457-4.713 2.124-9.547 2-14.5-.614-13.084-1.947-26.084-4-39l1-15c-1.625-12.751-3.792-25.418-6.5-38a28.15 28.15 0 0 1 .5-12 39.2 39.2 0 0 1-2.5-8C9.198 85.88 4.032 78.88-.5 71.5v-7c7.004-7.483 13.671-15.316 20-23.5a241.5 241.5 0 0 1 14-4.5c1.236-1.811 1.236-3.644 0-5.5a162.87 162.87 0 0 0-9.5-8.5c-.913-2.852-.08-5.019 2.5-6.5-1.762-7.642.904-13.142 8-16.5zm-12 54c4.285 11.481 3.785 22.814-1.5 34A202.31 202.31 0 0 0 7.5 68c5.503-4.337 10.503-9.17 15-14.5zm112 77a75.83 75.83 0 0 0 3 7c-2.254 2.717-3.587 2.217-4-1.5a47.5 47.5 0 0 0 1-5.5zm-31 1c1.848 2.606 2.015 5.606.5 9-1.022-.854-1.855-1.854-2.5-3 1.247-1.823 1.914-3.823 2-6z"/>
	<path d="M172.5 75.5l71 .5c26.4 1.9 40.067 16.067 41 42.5-.81 24.971-13.477 39.471-38 43.5a676.44 676.44 0 0 1-54 1.5v58h-20v-146zm20 18c15.67-.167 31.337 0 47 .5 15.807.808 23.807 9.141 24 25-.341 14.987-8.008 23.321-23 25a1151.63 1151.63 0 0 1-48 .5v-51z"/>
	<path d="M576.5 224.5h-10c-22.022-4.859-35.189-18.526-39.5-41-3.811-20.221-.144-38.888 11-56 12.682-12.875 27.849-17.042 45.5-12.5 5.987 2.326 11.154 5.826 15.5 10.5.5-16.663.667-33.33.5-50h19v146h-18c.165-3.35-.002-6.683-.5-10-6.411 7.118-14.244 11.451-23.5 13zm-11-95c19.04-1.472 30.54 7.195 34.5 26 2.345 11.845 1.678 23.511-2 35-10.283 19.318-24.449 22.818-42.5 10.5-5.447-5.73-8.614-12.563-9.5-20.5-1.115-11.134-.449-22.134 2-33 3.379-8.544 9.212-14.544 17.5-18z"/>
	<path d="M343.5 224.5h-13c-23.835-4.035-33.335-18.035-28.5-42 4.812-10.146 12.646-16.646 23.5-19.5a968.15 968.15 0 0 0 49-8.5c.997-18.195-7.67-26.528-26-25-7.723-.924-14.557 1.076-20.5 6-2.798 4.607-5.298 9.273-7.5 14l-16-3c.831-14.429 8.164-24.262 22-29.5 14.167-3.799 28.501-4.465 43-2 12.202 2.869 19.702 10.369 22.5 22.5a1663.57 1663.57 0 0 0 2 72 30.38 30.38 0 0 0 4.5 11.5 67.23 67.23 0 0 1-20-.5 45.75 45.75 0 0 1-3.5-11c-8.958 8.397-19.458 13.397-31.5 15zm29-55c4.22 24.156-6.114 37.489-31 40-14.255-.085-21.088-7.085-20.5-21 2.332-5.664 6.499-9.164 12.5-10.5l28-5c3.872-.904 7.539-2.07 11-3.5z"/>
	<path d="M460.5 113.5c13.197-1.866 25.197.967 36 8.5 4.534 4.589 7.368 10.089 8.5 16.5l.5 83h-18a1059.34 1059.34 0 0 0-1.5-77c-3.121-9.576-9.788-14.576-20-15-12.962.649-21.629 6.982-26 19a934.98 934.98 0 0 0-1.5 73h-19v-106h17a84.9 84.9 0 0 0 .5 13c6.177-7.692 14.011-12.692 23.5-15z"/>
	<path d="M694.5 224.5h-12c-20.054-2.207-33.554-12.874-40.5-32-5.052-17.883-4.386-35.55 2-53 12.08-20.952 30.247-29.452 54.5-25.5 23.579 4.963 36.746 19.463 39.5 43.5 1.946 15.713-.387 30.713-7 45-8.907 12.865-21.074 20.199-36.5 22zm-13-95c19.793-2.021 31.96 6.645 36.5 26 2.421 12.28 1.421 24.28-3 36-10.919 17.355-25.419 21.188-43.5 11.5-9.739-9.212-14.406-20.546-14-34-.149-12.557 3.851-23.557 12-33 3.647-2.987 7.647-5.154 12-6.5z"/>
	<path d="M791.5 113.5a61.52 61.52 0 0 1 17 1.5c3.291.753 5.958 2.42 8 5-2.213 5.588-4.546 11.088-7 16.5-13.006-6.961-22.839-3.961-29.5 9a90.46 90.46 0 0 0-3 21c-.5 18.33-.667 36.664-.5 55h-18v-106h17a84.9 84.9 0 0 0 .5 13c3.765-6.601 8.932-11.601 15.5-15z"/>
	<path d="M918.5 220.5v1c-6.7.33-13.366-.003-20-1a45.75 45.75 0 0 1-3.5-11c-8.958 8.397-19.458 13.397-31.5 15h-13c-23.835-4.035-33.335-18.035-28.5-42 4.812-10.146 12.646-16.646 23.5-19.5a968.15 968.15 0 0 0 49-8.5c1.947-13.177-3.387-21.343-16-24.5a100.2 100.2 0 0 0-20 0 31.65 31.65 0 0 0-10.5 5.5c-2.798 4.607-5.298 9.273-7.5 14a163.12 163.12 0 0 0-15-2.5c-1.016-.519-1.682-1.353-2-2.5 4.565-18.802 16.565-28.968 36-30.5a144.18 144.18 0 0 1 24 0c15.298.976 24.798 8.809 28.5 23.5a1663.57 1663.57 0 0 0 2 72c.644 4.119 2.144 7.785 4.5 11zm-26-51c4.22 24.156-6.114 37.489-31 40-14.255-.085-21.088-7.085-20.5-21 2.332-5.664 6.499-9.164 12.5-10.5l28-5c3.872-.904 7.539-2.07 11-3.5z"/>
</svg>
