<svg xmlns="http://www.w3.org/2000/svg" fill="#000" viewBox="0 0 512 512" preserveAspectRatio="xMidYMid meet"><path d="M84.3 1.5c-14.1 3.1-29.5 15-35.7 27.8-12.1 24.6-4 54.1 18.8 68.9 16.5 10.6 39.8 10.9 56.1.7 20.2-12.6 29.8-36.4 23.9-59.3-7-27.3-35-44.2-63.1-38.1zm244.7.1c-32 3.8-58.5 13.2-83 29.5-13 8.6-32.6 28.3-39.9 40.3-6.9 11.2-11.6 22.9-14.2 35.3l-3.1 13.3c-1.9 7 1.1 27.9 6.2 43 6.8 19.8 24 43.5 41.2 56.7l2.8 2.1-7.4 34.8c-7.5 35-7.9 37.4-7.7 40.7.1 2.6 4.6 6.7 7.2 6.7 1.2 0 26.6-10.6 56.3-23.5l54.2-23.5h11.6c69.5 0 132.6-38.6 152.3-93 3.4-9.4 6.5-26.2 6.5-35 0-7.9-2.2-21.7-5.1-31.2-2.8-9.7-11.1-25.6-18-34.7-7.8-10.4-23-24.7-34.2-32.2C437.3 19.3 413.1 9.1 393 5 369.3.2 349.6-.9 329 1.6zm40.8 36c17.2 3.5 31.2 13.5 37.9 27.1 3.2 6.6 3.7 8.6 4.1 16.5.9 18.5-3.2 25.8-26.2 46.7-8.1 7.4-15.7 15.2-17 17.5-1.4 2.2-3.2 7.2-4.1 11.1-1.9 7.8-4.8 12.9-8.3 14.4-3.9 1.8-12.3 1.3-16-.9-5-3.1-6.5-7.8-5.9-18.3.4-7.5 1-9.9 4-16 3.6-7.3 6.9-10.9 28.5-31 14.4-13.4 15.9-24.4 4.8-35.3-6.2-6-12.1-8-22-7.2-11.9 1-18.1 6.4-24.2 21-5.1 12.3-6.8 15-10.5 17-7.5 4-16.5 1.4-21.7-6.2-2-3-2.3-4.4-1.9-10 1.3-21.1 20.7-41.1 45-46.4 8.6-1.9 24.3-1.9 33.5 0zM358.6 185c10.6 5.2 13.4 20.2 5.3 28.6-8.8 9-22.6 7.9-29.6-2.5-3.1-4.6-3.2-14.1-.2-19.1 5.1-8.4 15.5-11.3 24.5-7zM57.3 129.5c-3.5.8-9.1 2.8-12.5 4.7-7.3 3.8-18.2 14.2-22.2 21.1-6.4 10.9-7 14.6-15.2 86.3-8.5 73.9-8.4 72.6-3.2 83 3.9 7.9 15.9 17.3 22.3 17.4 4.4.1 4.4.5 7 35.6L44 506c.5 1 2.2 2.8 3.6 3.9 2.6 2.1 3.6 2.1 48.1 2.1 49.8 0 49.6 0 52.3-5.9.6-1.4 2.3-17.2 3.6-35.1l8-107c1-13.1 2-20.7 2.7-21.2.7-.4 2.1-.8 3.3-.8 3.9 0 12.4-5.2 17.3-10.6 3.8-4.1 5.6-7.2 7.1-12.1 2.5-8.2 2.5-9.5-.5-35.9l-3.5-30.9-4-34.5-3.9-34.5c-2-17.6-6.7-28.1-17.6-39.1-7.8-8-15.7-12.5-25.7-14.9-8.6-2-68.2-2-77.5 0z"/></svg>
