<svg xmlns="http://www.w3.org/2000/svg" fill="#000" baseProfile="tiny" viewBox="0 0 256 256"><circle cx="193.3" cy="113.5" r="16.8"/><circle cx="172.6" cy="155.3" r="16.8"/><path d="M145.8 175.2h-18.9H108c-11.5 0-18.7 9.5-18.7 21.4v29.3h12.9V200c0-1.2 1-2 2-2 1.2 0 2 .8 2 2v25.8h41.5V200c0-1.2 1-2 2-2 1.2 0 2 1 2 2v25.8h12.9v-29.1c.2-12-7.1-21.5-18.8-21.5z"/><circle cx="150.5" cy="113.5" r="16.8"/><path d="M199.9 155.3c0 9.3 7.5 16.8 16.8 16.8s16.8-7.5 16.8-16.8-7.5-16.8-16.8-16.8-16.8 7.5-16.8 16.8zm-1.7 19.9c-11.5 0-18.7 9.5-18.7 21.4v29.3h12.9V200c0-1.2 1-2 2-2 1.2 0 2 .8 2 2v25.8h41.5V200c0-1.2 1-2 2-2 1.2 0 2 1 2 2v25.8h12.9v-29.1c.2-12.1-7.1-21.6-18.7-21.6h-18.9-19z"/><circle cx="40.6" cy="155.3" r="16.8"/><path d="M15.6 225.8V200c0-1.2 1-2 2-2 1.2 0 2 .8 2 2v25.8h41.5V200c0-1.2 1-2 2-2 1.2 0 2 1 2 2v25.8H78v-29.1c.2-12.1-7.1-21.6-18.7-21.6H40.4 21.5c-11.5 0-18.7 9.5-18.7 21.4v29.3h12.8zm94.5-70.5c0 9.3 7.5 16.8 16.8 16.8s16.8-7.5 16.8-16.8-7.5-16.8-16.8-16.8-16.8 7.5-16.8 16.8z"/><circle cx="62.1" cy="113.5" r="16.8"/><circle cx="107.5" cy="113.5" r="16.8"/><circle cx="171.5" cy="77.6" r="16.8"/><circle cx="83.1" cy="77.6" r="16.8"/><circle cx="128.4" cy="77.6" r="16.8"/><circle cx="84.9" cy="155.3" r="16.8"/></svg>
