<svg xmlns="http://www.w3.org/2000/svg" width="48" height="48"><style><![CDATA[.B{stroke-linejoin:round}]]></style><g fill="none" stroke="#ccc" class="B"><path d="M44 36V12L24 6m0 24V6M4 36V12l20-6m0 24l20 6-20 6-20-6z" stroke-width="1.5" stroke-linecap="round"/><path d="M39 34.459V16l-10-3v18.459"/></g><g stroke="#aaa" class="B"><path d="M19.888 28.133v8.902l7.419-2.226v-8.902zm0 0v8.902h0L12.47 34.81v-8.902zm0 0l7.419-2.226-7.419-2.226-7.419 2.226z" fill="#ccc"/><path d="M38.076 33.242V16.744l-7.221 1.805V35.95z" fill="#aaa" stroke-width=".5"/></g><path d="M9.633 19.94l8.013-2.404zm4.006-4.808v7.212zm-4.006 8.414v-7.212l8.013-2.404v7.212z" fill="none" stroke="#ccc" class="B"/></svg>
