<svg xmlns="http://www.w3.org/2000/svg" fill="#ccc" width="32" height="32" xmlns:v="https://vecta.io/nano"><path d="M32 17.969v-4l-4.781-1.992-.445-1.094 1.93-4.805-2.829-2.828-4.762 1.961a11.15 11.15 0 0 0-1.117-.461L17.969 0h-4l-1.977 4.734-1.16.469-4.754-1.91L3.25 6.121l1.938 4.711c-.188.387-.34.781-.485 1.188L0 14.031v4l4.707 1.961.488 1.188-1.902 4.742 2.828 2.828 4.723-1.945a11.13 11.13 0 0 0 1.164.461L14.031 32h4l1.98-4.758 1.113-.461 4.797 1.922 2.828-2.828-1.969-4.773c.168-.359.305-.723.438-1.094zm-16.031 5.928c-4.359 0-7.897-3.538-7.897-7.897s3.538-7.897 7.897-7.897 7.897 3.538 7.897 7.897-3.538 7.897-7.897 7.897z"/><path d="M10 20h12l-5-9-1-2z" fill="none" stroke="#ccc" stroke-width="1" stroke-linejoin="round"/><text xml:space="preserve" x="14.58" y="19" font-size="9.875" font-family="Inter" writing-mode="lr-tb" direction="ltr" fill="#ccc"><tspan x="14.58" y="19">!</tspan></text></svg>
