<svg xmlns="http://www.w3.org/2000/svg" width="48" height="48" fill="#ccc"><path d="M9 3v29H3l9 13 9-13h-6V3zm26.293 0h-1.12L28.04 18.547c-.72 2.08-1.413 2.72-2.933 2.827H25v1.253h7.067v-1.253h-.533c-1.44 0-2.16-.507-2.16-1.52 0-.347.08-.667.24-1.12l.88-2.347h7.067L39 19.96c.16.427.213.587.213.72 0 .427-.667.693-1.653.693h-1.12v1.253h8.267v-1.253h-.373c-1.387-.027-1.627-.187-2.24-1.707zm-1.307 4.373L37 14.947h-5.973zM41.533 26H28.307l-.533 6.747h1.2c.88-4.48 1.84-5.467 5.467-5.493h3.467L27 44.293v.96h14.213l.48-7.413H40.44c-.747 4.827-1.813 6.027-5.44 6.16h-4.427l10.96-17.04z"/></svg>
