<svg xmlns="http://www.w3.org/2000/svg" fill="#dddddd" width="48" height="48"><path d="M16.011 5.689l16.857-.001c7.316.118 12.86 7.188 12.495 12.054v4.547c-.067 7.165-3.836 13.767-11.773 13.981l-12.425.157-9.996 7.8-.12-8.081c-4.03-2.814-8.602-5.462-8.287-11.154l-.141-7.25c-.105-6.212 5.756-12.05 13.389-12.053z" stroke="#000" stroke-width=".909"/><g fill="#000" transform="matrix(.909355 0 0 .909355 .999137 2.283425)"><use href="#A"/><use href="#A" x="12.857" y="-.01"/><use href="#A" x="25.853" y="-.045"/></g><defs><path id="A" d="M15.792 20.101a3.534 3.534 0 0 1-6.847 1.751 3.534 3.534 0 0 1 6.833-1.803"/></defs></svg>
