<svg xmlns="http://www.w3.org/2000/svg" width="50" height="50" viewBox="0 0 50 50"><circle cx="25" cy="25" r="23.369" fill="#080" stroke="#a5a5a5" stroke-width="2.262"/><path fill="#fff" d="M39.862 14.293l-1.43-2.297-.536-.784-.822.476c-.209.121-5.171 3.05-9.114 10.253-4.198 7.669-6.719 8.158-8.251 7.857-1.975-.387-2.719-.978-2.829-1.073l-.462-.612-7.394 3.812-.053.037c-.119.082-1.165.836-1.165 2.058 0 .525.058 1.268.557 1.651l.239.184 14.126 1.151c.126.019.431.057.846.057a6.67 6.67 0 0 0 1.269-.121c1.605-.312 2.843-1.202 3.581-2.573l.204-.38c.732-1.365 1.838-3.427 3.07-5.196 1.706-2.449 2.845-3.187 3.5-3.374l2.014-.566c-.226 1.595-.511 4.098-.395 5.923v4.234h-.31v2.047h2.712V35.01h-.355v-4.267l-.002-.068c-.133-1.991.299-5.069.504-6.379l.015-.003.211-.447c.183-.389 1.792-3.853 1.792-5.623 0-.544-.158-1.543-1.521-3.929z"/></svg>
