<svg xmlns="http://www.w3.org/2000/svg" width="50" height="50" viewBox="0 0 50 50"><circle cx="25" cy="25" r="23.369" fill="#080" stroke="#a5a5a5" stroke-width="2.262"/><path fill="#fff" d="M22.07 23.753a1.91 1.91 0 0 1-.712.776c-.489.299-1.08.363-1.622.176l-.394-.136.371.444a5.87 5.87 0 0 1 1.161 3.121c.05.756-.045 1.532-.309 2.297a5.81 5.81 0 0 1-2.009 2.76c-.901.678-1.987 1.084-3.121 1.161l-.252.01a2.63 2.63 0 0 1 .028 1.8 2.62 2.62 0 0 1-.486.847 8.46 8.46 0 0 0 2.509-.28 8.51 8.51 0 0 0 4.126-2.526 8.45 8.45 0 0 0 1.892-7.867 8.53 8.53 0 0 0-1.181-2.583zm-10.536.103a5.86 5.86 0 0 1 3.121-1.161 5.78 5.78 0 0 1 2.297.309l3.011 1.041a1.21 1.21 0 0 0 1.598-.978l.458-2.492c.081-.575-.257-1.126-.805-1.316l-2.65-.917-2.652-.917c-.548-.189-1.154.036-1.446.538l-1.178 2.245-.006.008-.427.101c-1.58.424-3.019 1.294-4.127 2.525a8.48 8.48 0 0 0-1.711 2.906c-.574 1.657-.603 3.384-.18 4.962a8.52 8.52 0 0 0 2.526 4.127 8.45 8.45 0 0 0 1.484 1.066c.185.56.616 1.031 1.216 1.239 1.021.353 2.134-.188 2.486-1.209s-.188-2.133-1.208-2.486a1.95 1.95 0 0 0-1.374.039 5.81 5.81 0 0 1-1.59-1.454 5.87 5.87 0 0 1-1.161-3.121c-.05-.756.045-1.532.309-2.297.398-1.148 1.108-2.083 2.008-2.759zm5.441-3.18c.114-.333.417-.546.747-.563l.295-.849.593.205-.294.849a.84.84 0 1 1-1.342.357zm-5.063 14.346a.84.84 0 0 1 1.066-.518.84.84 0 0 1 .518 1.066.84.84 0 0 1-1.065.518.84.84 0 0 1-.519-1.066zm20.984 2.058c-1.075-.366-2.019-1.043-2.713-1.93a5.81 5.81 0 0 1-1.226-3.185 5.82 5.82 0 0 1 .297-2.3c.366-1.075 1.043-2.019 1.93-2.714a5.4 5.4 0 0 1 .472-.332l-.416.029c-.572.04-1.126-.175-1.521-.591-.25-.263-.416-.586-.486-.932a8.53 8.53 0 0 0-1.81 2.188c-.817 1.415-1.235 3.09-1.111 4.839.082 1.167.399 2.267.9 3.251.752 1.476 1.916 2.69 3.332 3.507a8.43 8.43 0 0 0 2.35.921 2.63 2.63 0 0 1 .244-2.676l-.242-.075zm10.356-6.131a8.47 8.47 0 0 0-.9-3.25 8.52 8.52 0 0 0-3.332-3.508l-.387-.208-.002-.01-.558-2.473a1.21 1.21 0 0 0-1.257-.892l-2.797.198-2.797.198c-.579.041-1.048.488-1.118 1.062l-.203 2.526a1.21 1.21 0 0 0 .325.984c.25.262.603.4.965.374l3.178-.225a5.84 5.84 0 0 1 2.3.296 5.88 5.88 0 0 1 2.714 1.93 5.82 5.82 0 0 1 1.225 3.185c.056.808-.052 1.584-.297 2.3a5.87 5.87 0 0 1-1.929 2.714 5.84 5.84 0 0 1-1.913.993c-.364-.278-.825-.429-1.317-.394-1.077.076-1.888 1.011-1.812 2.088s1.011 1.887 2.089 1.811a1.95 1.95 0 0 0 1.496-.881c.598-.156 1.171-.372 1.709-.647a8.51 8.51 0 0 0 3.508-3.332c.818-1.417 1.236-3.09 1.111-4.839zm-9.076-6.584c-.463.034-.863-.314-.895-.776-.025-.351.169-.666.467-.811l-.064-.897.626-.045.063.897a.84.84 0 0 1 .578.737c.032.462-.315.862-.776.894zm1.173 15.168c-.462.034-.862-.314-.895-.777a.84.84 0 0 1 .777-.894.84.84 0 0 1 .895.777.84.84 0 0 1-.777.894zm-8.572-28.282a1.89 1.89 0 0 0 .282-.8l1.009.235a1.88 1.88 0 0 0-.093.573 1.86 1.86 0 0 0 .364 1.104l.871 1.181a1.85 1.85 0 0 0 .672.564c.258.128.54.193.825.193.188 0 .377-.029.56-.086l.423.695c-.152.113-.288.245-.4.394-.25.333-.393.743-.393 1.173a1.96 1.96 0 0 0 .071.518l.416 1.516c.119.431.377.793.709 1.042a1.96 1.96 0 0 0 1.69.322h0c.431-.118.793-.375 1.043-.708s.392-.743.392-1.172a1.97 1.97 0 0 0-.071-.519l-.416-1.516a1.95 1.95 0 0 0-.708-1.042c-.333-.25-.743-.392-1.173-.392l-.084.002-.584-.959c.074-.096.14-.197.193-.304a1.87 1.87 0 0 0 .192-.826 1.86 1.86 0 0 0-.362-1.103l-.872-1.181c-.182-.247-.415-.437-.672-.564a1.86 1.86 0 0 0-1.855.12l-2.031-.474a1.84 1.84 0 0 0-.557-.557 1.86 1.86 0 0 0-1.006-.296c-.249 0-.503.05-.743.155l-1.346.588v-.001a1.85 1.85 0 0 0-.82.699 1.86 1.86 0 0 0-.296 1.006 1.85 1.85 0 0 0 .076.521l-.969.923a1.96 1.96 0 0 0-.606-.097 1.97 1.97 0 0 0-1.051.307 1.94 1.94 0 0 0-.733.853l-.639 1.437a1.95 1.95 0 0 0-.169.791 1.97 1.97 0 0 0 .307 1.051 1.94 1.94 0 0 0 .853.734 1.95 1.95 0 0 0 .792.168 1.96 1.96 0 0 0 1.05-.306 1.94 1.94 0 0 0 .734-.853l.639-1.437a1.97 1.97 0 0 0 .168-.792 1.96 1.96 0 0 0-.306-1.051l-.108-.149.671-.64.145.103a1.85 1.85 0 0 0 1.006.296 1.84 1.84 0 0 0 .743-.155l1.346-.587a1.86 1.86 0 0 0 .821-.698zm5.406 4.724a.82.82 0 0 1 .445-.303c.075-.021.15-.03.222-.03a.84.84 0 0 1 .806.615l.416 1.515a.86.86 0 0 1 .029.223c0 .182-.061.359-.168.501s-.259.251-.446.303c-.075.02-.148.03-.222.03-.182 0-.359-.061-.501-.168s-.252-.259-.304-.446l-.416-1.515-.539.147.539-.148a.86.86 0 0 1-.03-.222.83.83 0 0 1 .169-.502zM29.237 11.7a.73.73 0 0 1-.145-.44.74.74 0 0 1 .077-.331.63.63 0 0 1 .049-.084c.112-.047.207-.132.268-.241a.74.74 0 0 1 .347-.087.75.75 0 0 1 .332.077.74.74 0 0 1 .268.224L31.304 12c.1.134.145.286.145.439a.73.73 0 0 1-.076.331.72.72 0 0 1-.225.269.74.74 0 0 1-.44.146.76.76 0 0 1-.331-.077c-.103-.05-.194-.126-.268-.225l-.872-1.182-.448.332zm-7.968 2.771l-.639 1.437c-.069.157-.179.279-.313.364s-.291.132-.45.132a.81.81 0 0 1-.338-.073.82.82 0 0 1-.365-.313c-.085-.134-.132-.291-.131-.452 0-.112.022-.226.072-.337l.639-1.437c.069-.158.179-.279.314-.365a.83.83 0 0 1 .45-.131.82.82 0 0 1 .338.072c.157.071.279.179.365.314a.85.85 0 0 1 .131.45.81.81 0 0 1-.073.338zm4.568-3.824c-.077.12-.186.217-.327.279l-1.346.587a.74.74 0 0 1-.297.062.75.75 0 0 1-.403-.119.73.73 0 0 1-.278-.327.72.72 0 0 1-.063-.297.75.75 0 0 1 .119-.403.74.74 0 0 1 .327-.278h.001l1.345-.587a.74.74 0 0 1 .297-.063c.142 0 .284.043.403.119a.73.73 0 0 1 .278.328.72.72 0 0 1 .063.296c0 .144-.043.284-.119.404z"/></svg>
