<svg xmlns="http://www.w3.org/2000/svg" fill="#ccc" viewBox="0 0 56 56"><path d="M8.559 16.949h38.883c2.648 0 3.984-1.57 3.984-4.195v-2.133c0-2.625-1.336-4.195-3.984-4.195H8.559c-2.508 0-3.984 1.57-3.984 4.195v2.133c0 2.625 1.336 4.195 3.984 4.195zm6.586 32.625h25.734c4.594 0 7.055-2.391 7.055-6.984V20.16H8.066v22.43c0 4.617 2.484 6.984 7.078 6.984zm5.133-20.953c-.984 0-1.664-.68-1.664-1.711v-.727c0-1.031.68-1.687 1.664-1.687h15.492c.961 0 1.664.656 1.664 1.688v.727c0 1.031-.703 1.711-1.664 1.711z"/></svg>
