<svg xmlns="http://www.w3.org/2000/svg" viewBox="0 0 48 48"><path d="M13.987 10.089c-1.013.223-2.119 1.077-2.564 1.996-.869 1.767-.287 3.885 1.35 4.948 1.185.761 2.858.783 4.029.05 1.451-.905 2.14-2.614 1.716-4.259-.503-1.961-2.514-3.174-4.532-2.736zm-1.939 9.192c-.251.057-.654.201-.898.338-.524.273-1.307 1.02-1.594 1.515-.46.783-.503 1.049-1.092 6.198-.61 5.307-.603 5.214-.23 5.961.28.567 1.142 1.242 1.601 1.25.316.007.316.036.503 2.557l.754 9.221c.036.072.158.201.259.28.187.151.259.151 3.454.151 3.576 0 3.562 0 3.756-.424.043-.101.165-1.235.259-2.521l.575-7.684c.072-.941.144-1.487.194-1.522a.55.55 0 0 1 .237-.057c.28 0 .891-.373 1.242-.761.273-.294.402-.517.51-.869.18-.589.18-.682-.036-2.578l-.251-2.219-.287-2.478-.28-2.478c-.144-1.264-.481-2.018-1.264-2.808-.56-.575-1.128-.898-1.846-1.07-.618-.144-4.898-.144-5.566 0z" fill="#ccc"/><path d="M11.342 18.833a.43.43 0 0 0-.286.691l3.133 4.457-5.743 1.541c-.425.115-.425.719 0 .834l4.622 1.242-5.049 1.349c-.425.115-.425.719 0 .834l5.672 1.521-3.96 3.266a.43.43 0 1 0 .547.669l4.565-3.765 4.565 3.765a.43.43 0 0 0 .547-.669l-3.965-3.266 5.672-1.521c.425-.115.425-.719 0-.834l-5.049-1.349 4.622-1.242c.425-.115.425-.719 0-.834l-5.736-1.541c.345-.665 1.363-2.138 3.132-4.457a.43.43 0 0 0-.401-.687.43.43 0 0 0-.286.165l-3.101 4.368c-.399-.676-1.247-1.938-3.1-4.368a.43.43 0 0 0-.403-.168zm3.502 5.866l4.616 1.236-4.616 1.24-4.616-1.24zm0 3.314l5.037 1.349-5.023 1.376-5.049-1.376z" fill="#666"/><path d="M22.362 14.225l3.26 3.26-1.63 1.63 3.26 3.26-3.26 3.26 3.26 3.26-3.26 3.26 3.26 3.26-3.26 3.26 1.63 1.63-3.26 3.26M7.322 14.225l-3.26 3.26 1.63 1.63-3.26 3.26 3.26 3.26-3.26 3.26 3.26 3.26-3.26 3.26 3.26 3.26-1.63 1.63 3.26 3.26" fill="none" stroke="#ccc" stroke-linecap="round" stroke-linejoin="round" stroke-width=".864"/><path d="M35.957 2A9.96 9.96 0 0 0 26 11.957a9.96 9.96 0 0 0 9.957 9.858 9.96 9.96 0 0 0 9.957-9.858A9.96 9.96 0 0 0 35.957 2zm5.844 4.97a1 1 0 0 1 .864 1.695l-8 8a1 1 0 0 1-1.365.046l-4-3.5a1 1 0 1 1 1.316-1.506l3.296 2.885 7.339-7.339a1 1 0 0 1 .551-.28z" fill="#ccc"/></svg>
