<svg xmlns="http://www.w3.org/2000/svg" viewBox="0 0 48 48"><path d="M23.009 2.799c-1.174.258-2.456 1.249-2.973 2.315-1.007 2.048-.333 4.505 1.565 5.737 1.374.883 3.314.908 4.671.058a4.48 4.48 0 0 0 1.99-4.938c-.583-2.273-2.914-3.68-5.254-3.172zM20.76 13.456c-.291.067-.758.233-1.041.391-.608.316-1.515 1.182-1.848 1.757-.533.908-.583 1.216-1.266 7.186-.708 6.153-.699 6.045-.266 6.911.325.658 1.324 1.44 1.857 1.449.366.008.366.042.583 2.964l.874 10.691c.042.083.183.233.3.325.216.175.3.175 4.005.175 4.147 0 4.13 0 4.355-.491.05-.117.192-1.432.3-2.923l.666-8.909c.083-1.091.167-1.724.225-1.765.058-.033.175-.067.275-.067.325 0 1.032-.433 1.44-.883a2.32 2.32 0 0 0 .591-1.007c.208-.683.208-.791-.042-2.989l-.291-2.573-.333-2.873-.325-2.873c-.167-1.465-.558-2.34-1.465-3.256-.649-.666-1.307-1.041-2.14-1.241-.716-.167-5.679-.167-6.453 0z" fill="#ccc"/><path d="M19.942 12.936a.5.5 0 0 0-.332.801l3.633 5.168-6.658 1.787c-.493.134-.493.833 0 .967l5.359 1.439-5.854 1.564c-.493.134-.493.833 0 .967l6.576 1.764-4.592 3.787a.5.5 0 0 0 .635.775l5.293-4.365 5.293 4.365a.5.5 0 0 0 .635-.775l-4.598-3.787 6.576-1.764c.493-.134.493-.833 0-.967l-5.854-1.564 5.359-1.439c.493-.134.493-.833 0-.967l-6.65-1.787c.4-.77 1.581-2.479 3.631-5.168a.5.5 0 0 0-.465-.797.5.5 0 0 0-.332.191l-3.596 5.064c-.463-.783-1.446-2.247-3.594-5.064a.5.5 0 0 0-.467-.195zm4.061 6.801l5.352 1.434-5.352 1.438-5.352-1.438zm0 3.842l5.84 1.564-5.824 1.596-5.854-1.596z" fill="#666"/><path d="M32.719 7.594l3.78 3.78-1.89 1.89 3.78 3.78-3.78 3.78 3.78 3.78-3.78 3.78 3.78 3.78-3.78 3.78 1.89 1.89-3.78 3.78M15.281 7.594l-3.78 3.78 1.89 1.89-3.78 3.78 3.78 3.78-3.78 3.78 3.78 3.78-3.78 3.78 3.78 3.78-1.89 1.89 3.78 3.78" fill="none" stroke="#ccc" stroke-linecap="round" stroke-linejoin="round" stroke-width="1.002"/></svg>
