<svg xmlns="http://www.w3.org/2000/svg" viewBox="0 0 48 48"><path d="M1.903 30.59l6.34-17.461h2.578l6.422 17.461h-2.344l-1.746-4.875H5.957L4.27 30.59zm4.734-6.82h5.824l-1.266-3.539q-.316-.879-.715-2.145-.398-1.277-.961-3.176-.551 1.934-.961 3.223-.41 1.289-.691 2.098zm19.148 7.102q-1.242 0-2.004-.422-.762-.434-1.172-.973-.41-.551-.633-.914h-.234v2.027h-2.039V13.129h2.109v6.457h.164q.223-.352.621-.879.398-.539 1.148-.961.75-.422 2.027-.422 1.641 0 2.883.82 1.254.82 1.957 2.344.715 1.512.715 3.586 0 2.086-.703 3.609-.703 1.523-1.957 2.355-1.242.832-2.883.832zm-.316-1.887q1.23 0 2.051-.656.832-.668 1.242-1.781.422-1.125.422-2.496 0-1.359-.41-2.449-.41-1.102-1.242-1.746-.82-.645-2.062-.645-1.805 0-2.742 1.336-.937 1.336-.937 3.504 0 2.191.949 3.563.949 1.371 2.73 1.371zm14.262 1.887q-1.781 0-3.129-.844-1.336-.844-2.086-2.367-.75-1.523-.75-3.539 0-2.051.75-3.574.75-1.535 2.086-2.379 1.348-.844 3.129-.844 1.898 0 3.328.961 1.441.949 1.98 2.66l-2.027.574q-.293-1.008-1.148-1.652-.844-.656-2.133-.656-1.312 0-2.156.691-.844.68-1.254 1.793-.41 1.113-.41 2.426 0 1.289.41 2.402.41 1.102 1.254 1.781.844.68 2.156.68 1.324 0 2.18-.668.867-.68 1.16-1.746l2.016.574q-.527 1.746-1.98 2.742-1.453.984-3.375.984z" fill="#ccc"/><path d="M1 35h46" fill="none" stroke="#ccc" stroke-width="1.5"/></svg>
