<svg xmlns="http://www.w3.org/2000/svg" fill="#ccc" viewBox="0 0 512 512"><path d="M371.051 78.185l8.187-9.044 46.998 42.548-8.187 9.044zM63.1 404.4h0c-8.8 7.5-14.3 18.7-14.3 31.1 0 22.5 18.3 40.8 40.8 40.8 13.9 0 26.2-7 33.6-17.6l119.2-137.4-54.1-48.8L63.1 404.4zm262.7-274.3l-76.6 81.3 50.8 45.8 73.1-84.3zM451 361.9c-13.2-12-28.9-17.5-47.1-16.6-6.1.3-12.2 1.4-18.2 3.3L161.1 143c1.3-6 1.8-12.1 1.5-18.2-.9-18.3-8-33.5-21.2-45.4-13.2-12-28.8-17.5-46.8-16.6-6.3.3-12.4 1.5-18.5 3.5l52.3 47.3L82.1 165l-52.3-47.3c-1.4 6.2-2 12.4-1.7 18.5.9 18 7.9 33 21.1 44.9 13.2 12 28.8 17.5 46.8 16.6 6.6-.3 13.1-1.6 19.5-3.9L327.1 387l-.3.3 12.8 11.6c-1.6 6.6-2.2 13.1-1.9 19.5.9 18.2 7.9 33.2 21 45.2s28.8 17.5 46.9 16.6c6.1-.3 12.2-1.5 18.2-3.5l-52.3-47.3 46.6-51.4 52.3 47.3c1.4-6.2 2-12.4 1.7-18.5-.9-17.9-7.9-32.9-21.1-44.9zm42.3-175.5c-1.3-9.7-5.7-18.4-12.2-25-1.2-1.2-2.5-2.4-3.9-3.5l-22.3-20.2-9.8 10.6-1.1 1.2-1.1-1-67-60.7.1-.1-34.3-30.9h0L317 34.6l-38.8 43 59 53.2h0l67.9 61.5v.1.1l-9.6 10.6 22.5 20.5c1.1 1.1 2.2 2.1 3.3 3.1 7.3 6 16.5 9.7 26.6 10.1h1.6c24.5 0 44.4-19.9 44.4-44.4-.2-2-.3-4-.6-6z"/></svg>
