<?xml version="1.0" encoding="UTF-8"?>
<svg enable-background="new 0 0 512.025 512.025" version="1.1" viewBox="0 0 512.02 512.02" xml:space="preserve" xmlns="http://www.w3.org/2000/svg">
	<path d="m177.65 179.83c-3.349-29.547-26.752-51.819-54.4-51.819h-54.464c-27.648 0-51.051 22.272-54.4 51.819l-14.144 123.9c-1.173 10.368 2.027 20.651 8.768 28.224 5.803 6.528 13.547 10.304 21.909 10.773l11.776 159.4c0.448 5.568 5.077 9.877 10.667 9.877h85.333c5.589 0 10.219-4.309 10.645-9.877l11.776-159.4c8.384-0.469 16.107-4.267 21.909-10.773 6.741-7.552 9.941-17.856 8.768-28.224l-14.143-123.9z"/>
	<path d="m96.025 106.68c29.461 0 53.333-23.872 53.333-53.333s-23.893-53.333-53.333-53.333c-29.461 0-53.333 23.872-53.333 53.333-1e-3 29.461 23.871 53.333 53.333 53.333z"/>
	<path d="m354.56 20.471c4.651-1.984 7.253-6.997 6.251-11.947-1.024-4.949-5.397-8.512-10.453-8.512h-105c-17.643 0-32 14.357-32 32v384c0 17.643 14.357 32 32 32h21.333c5.888 0 10.667-4.779 10.667-10.667v-339.33c0-26.987 16.043-51.307 40.853-61.952l36.353-15.595z"/>
	<path d="m465.97 0.012c-6.293 0-12.395 1.259-18.176 3.733l-121.2 51.947c-16.939 7.253-27.904 23.872-27.904 42.325v367.94c0 25.387 20.672 46.059 46.059 46.059 6.293 0 12.395-1.259 18.176-3.733l121.2-51.947c16.939-7.253 27.904-23.872 27.904-42.325v-367.94c0-25.387-20.672-46.059-46.059-46.059zm-103.28 288c0 5.888-4.779 10.667-10.667 10.667s-10.667-4.779-10.667-10.667v-42.667c0-5.888 4.779-10.667 10.667-10.667s10.667 4.779 10.667 10.667v42.667z"/>
</svg>
